<?xml version="1.0" encoding="UTF-8" standalone="no"?>
<!-- Created with Inkscape (http://www.inkscape.org/) -->

<svg
   width="253mm"
   height="55mm"
   viewBox="0 0 253 55"
   version="1.1"
   id="svg1"
   xml:space="preserve"
   inkscape:version="1.4 (e7c3feb1, 2024-10-09)"
   sodipodi:docname="bgu_dark.svg"
   xmlns:inkscape="http://www.inkscape.org/namespaces/inkscape"
   xmlns:sodipodi="http://sodipodi.sourceforge.net/DTD/sodipodi-0.dtd"
   xmlns="http://www.w3.org/2000/svg"
   xmlns:svg="http://www.w3.org/2000/svg"><sodipodi:namedview
     id="namedview1"
     pagecolor="#ffffff"
     bordercolor="#000000"
     borderopacity="0.25"
     inkscape:showpageshadow="2"
     inkscape:pageopacity="0.0"
     inkscape:pagecheckerboard="0"
     inkscape:deskcolor="#d1d1d1"
     inkscape:document-units="mm"
     inkscape:zoom="0.80474139"
     inkscape:cx="485.87037"
     inkscape:cy="109.97322"
     inkscape:window-width="1512"
     inkscape:window-height="822"
     inkscape:window-x="0"
     inkscape:window-y="38"
     inkscape:window-maximized="0"
     inkscape:current-layer="layer1"
     showgrid="false" /><defs
     id="defs1"><rect
       x="431.19443"
       y="-136.68988"
       width="13.668988"
       height="314.38672"
       id="rect3" /><rect
       x="124.4354"
       y="-30.350098"
       width="127.47041"
       height="509.88162"
       id="rect2" /></defs><g
     inkscape:label="Layer 1"
     inkscape:groupmode="layer"
     id="layer1"><g
       clip-path="url(#a)"
       fill-rule="evenodd"
       transform="matrix(0.10053267,0,0,-0.10053267,-0.67683859,50.469819)"
       id="g6"><path
         d="m 0,0 c 0,-123.793 -100.354,-224.147 -224.147,-224.147 -123.794,0 -224.148,100.354 -224.148,224.147 0,123.793 100.354,224.148 224.148,224.148 C -100.354,224.148 0,123.793 0,0"
         fill="#f6921e"
         transform="translate(474.1475,250)"
         id="path2" /><g
         fill="#ffffff"
         id="g5"><path
           d="m 0,0 c -43.131,24.868 -38.31,71.006 -12.976,106.512 l -29.378,15.724 C -79.843,95.896 -83.242,33.695 -58.037,0 Z"
           transform="translate(355.5195,65.3486)"
           id="path3" /><path
           d="M 0,0 56.53,0.008 C 41.821,29.64 42.179,68.888 55.418,98.679 72.972,138.18 127.694,160.038 126.37,209.809 124.615,275.761 59.305,339.17 4.458,369.318 44.054,292.068 -175.798,198.197 -2.227,109.436 c 0,0 5.01,13.568 9.45,21.634 4.083,7.417 12.027,18.074 12.027,18.074 -104.042,49.053 9.969,117.035 1.719,190.991 C 47.253,311.575 86.372,253.247 82.28,213.487 78.225,174.086 41.748,157.57 20.868,127.828 -0.247,97.752 -3.69,43.619 0,0"
           transform="translate(223.4531,65.3408)"
           id="path4" /><path
           d="m 0,0 c 0,0 -13.635,6.438 -21.879,11.4 -12.055,7.254 -29.117,21.3 -29.117,21.3 12.689,-45.14 13.45,-98.642 -21.596,-129.821 H -6.543 C -7.743,-59.047 -6.27,-31.379 0,0"
           transform="translate(217.0728,162.4619)"
           id="path5" /></g></g><text
       xml:space="preserve"
       transform="scale(0.26458333)"
       id="text2"
       style="font-weight:800;font-size:33.3333px;line-height:1.25;font-family:Montserrat;-inkscape-font-specification:'Montserrat Ultra-Bold';text-align:start;text-decoration-color:#000000;writing-mode:lr-tb;direction:ltr;white-space:pre;shape-inside:url(#rect2);display:inline;fill:#808080;stroke-width:6.11528;paint-order:stroke markers fill" /><text
       xml:space="preserve"
       style="font-style:normal;font-variant:normal;font-weight:normal;font-stretch:normal;font-size:21.8722px;line-height:1.05;font-family:'Noto Serif Yezidi';-inkscape-font-specification:'Noto Serif Yezidi';text-align:start;text-decoration-color:#000000;writing-mode:lr-tb;direction:ltr;text-anchor:start;fill:#58595b;fill-opacity:1;stroke-width:1.618;paint-order:stroke markers fill"
       x="51.440514"
       y="23.071234"
       id="text3"><tspan
         sodipodi:role="line"
         id="tspan2"
         style="font-style:normal;font-variant:normal;font-weight:normal;font-stretch:semi-condensed;font-size:21.8722px;line-height:1.05;font-family:'Noto Sans Display';-inkscape-font-specification:'Noto Sans Display Semi-Condensed';fill:#ffffff;fill-opacity:1;stroke-width:1.618"
         x="51.440514"
         y="23.071234">Ben-Gurion University</tspan><tspan
         sodipodi:role="line"
         style="font-style:normal;font-variant:normal;font-weight:normal;font-stretch:semi-condensed;font-size:21.8722px;line-height:1.05;font-family:'Noto Sans Display';-inkscape-font-specification:'Noto Sans Display Semi-Condensed';fill:#ffffff;fill-opacity:1;stroke-width:1.618"
         x="51.440514"
         y="46.046207"
         id="tspan4">of the Negev</tspan></text><text
       xml:space="preserve"
       transform="scale(0.26458333)"
       id="text1"
       style="font-stretch:semi-condensed;font-size:86.6667px;line-height:1.05;font-family:'Noto Sans Display';-inkscape-font-specification:'Noto Sans Display Semi-Condensed';text-align:start;text-decoration-color:#000000;writing-mode:lr-tb;direction:ltr;white-space:pre;shape-inside:url(#rect3);display:inline;fill:#1a1a1a;stroke-width:6.11528;paint-order:stroke markers fill" /><text
       xml:space="preserve"
       style="font-style:normal;font-variant:normal;font-weight:normal;font-stretch:semi-condensed;font-size:21.8722px;line-height:1.05;font-family:'Noto Sans Display';-inkscape-font-specification:'Noto Sans Display Semi-Condensed';text-align:start;text-decoration-color:#000000;writing-mode:lr-tb;direction:ltr;text-anchor:start;fill:#ffffff;fill-opacity:1;stroke-width:1.618;paint-order:stroke markers fill"
       x="-19.398052"
       y="-78.249779"
       id="text5"><tspan
         sodipodi:role="line"
         id="tspan5"
         style="stroke-width:1.618"
         x="-19.398052"
         y="-78.249779" /></text></g></svg>
