<?xml version="1.0" encoding="UTF-8" standalone="no"?>
<!-- Created with Inkscape (http://www.inkscape.org/) -->

<svg
   width="200mm"
   height="200mm"
   viewBox="0 0 200 200"
   version="1.1"
   id="svg1"
   sodipodi:docname="eegdash_blue.svg"
   inkscape:version="1.4 (e7c3feb1, 2024-10-09)"
   xmlns:inkscape="http://www.inkscape.org/namespaces/inkscape"
   xmlns:sodipodi="http://sodipodi.sourceforge.net/DTD/sodipodi-0.dtd"
   xmlns="http://www.w3.org/2000/svg"
   xmlns:svg="http://www.w3.org/2000/svg">
  <sodipodi:namedview
     id="namedview1"
     pagecolor="#ffffff"
     bordercolor="#000000"
     borderopacity="0.25"
     inkscape:showpageshadow="2"
     inkscape:pageopacity="0.0"
     inkscape:pagecheckerboard="0"
     inkscape:deskcolor="#d1d1d1"
     inkscape:document-units="mm"
     inkscape:zoom="0.6592312"
     inkscape:cx="396.67419"
     inkscape:cy="561.25984"
     inkscape:window-width="1512"
     inkscape:window-height="917"
     inkscape:window-x="0"
     inkscape:window-y="65"
     inkscape:window-maximized="0"
     inkscape:current-layer="layer1" />
  <defs
     id="defs1" />
  <g
     inkscape:label="Layer 1"
     inkscape:groupmode="layer"
     id="layer1">
    <path
       class="st22"
       d="m 98.027444,7.187158 -0.17465,-3.712245 c -11.73676,0.559747 -23.61685,2.959944 -34.35057,6.945345 -4.30781,1.59864 -8.38277,3.448045 -12.18906,5.512393 -0.98068,-0.900075 -2.28825,-1.455343 -3.72568,-1.455343 -3.045023,0 -5.51239,2.467366 -5.51239,5.512393 0,0.559747 0.08508,1.097104 0.237333,1.603116 -3.009203,2.189733 -5.754203,4.536193 -8.190225,7.016994 -6.33634,6.457247 -11.306898,13.080178 -15.216173,19.528469 -3.443566,0.609004 -6.058707,3.609252 -6.058707,7.227458 0,1.061282 0.228378,2.068827 0.635874,2.977857 -3.662988,7.948413 -5.812418,15.301258 -7.061775,21.328618 -1.334437,6.4259 -1.818059,11.96068 -1.943442,16.16103 -2.655442,1.61207 -4.437678,4.518277 -4.437678,7.849887 0,5.07355 4.110785,9.18434 9.184336,9.18434 5.07355,0 9.184335,-4.11079 9.184335,-9.18434 0,-1.25383 -0.250765,-2.44497 -0.707519,-3.53312 1.495644,-0.407497 3.206232,-0.855297 5.086983,-1.329957 -0.228376,2.256897 -0.08508,5.028767 0.376151,7.706597 0.604528,3.48387 3.430132,6.38112 6.009448,8.36039 -0.88664,2.94651 -1.406085,6.54233 0.156722,8.92014 3.067415,4.66157 3.92271,3.97196 3.92271,3.97196 0,0 -2.216601,5.52583 0.850816,8.28875 3.067416,2.76291 6.819962,2.93307 6.819962,2.93307 0,0 2.386763,7.94394 8.185749,7.76929 5.79898,-0.17464 9.04104,-1.72849 9.04104,-1.72849 0,0 3.92271,2.76291 9.72169,2.93307 6.914,1.7688 13.95787,-2.64649 16.3491,-4.36155 -4.1287,-4.01676 -6.69458,-9.62765 -6.69458,-15.83862 0,-9.90977 6.52889,-18.27463 15.51171,-21.08232 l -0.24629,-0.49258 -0.0626,-0.14777 -3.38535,-8.767877 -0.10307,-0.39407 -3.04952,-20.35241 -0.0359,0.0358 -1.59416,8.26187 c -0.12542,0.64483 -0.5508,1.0971 -1.03889,1.0971 h -0.86426 l -1.45982,7.57227 -1.68371,13.595137 c -0.0493,0.57766 -0.34928,1.06576 -0.7523,1.23145 -0.10298,0.0448 -0.20598,0.0627 -0.30898,0.0627 -0.30898,0 -0.609,-0.1836 -0.81499,-0.51049 l -0.66722,-1.06129 -0.95381,2.47633 -0.0627,0.14777 -1.69267,3.37191 c -0.20151,0.40302 -0.53288,0.64035 -0.88664,0.64035 -0.0269,0 -0.0537,0 -0.0761,0 -0.38063,-0.0403 -0.71648,-0.35375 -0.88664,-0.81947 l -1.4643,-4.08391 -2.61066,-0.77917 -1.42848,0.5687 c -0.0985,0.0403 -0.19703,0.0582 -0.30002,0.0582 -0.28659,0 -0.56423,-0.15674 -0.76574,-0.43884 l -0.47466,-0.66274 -1.12845,4.49141 c -0.14777,0.59557 -0.55975,0.99411 -1.0165,0.99411 0,0 -0.004,0 -0.009,0 -0.46124,-0.004 -0.86873,-0.41645 -1.01203,-1.0165 l -3.34505,-10.54116 -1.62103,-1.486687 -0.10747,-0.3045 -1.69267,-6.74384 -0.0269,-0.11642 -0.61348,-3.30475 -2.37781,13.733957 -0.0224,0.12091 -1.69268,7.07968 -0.0896,0.27316 -1.6479,3.9451 -1.66133,5.96468 -0.18808,0.43435 -1.69267,2.69575 c -0.205988,0.32689 -0.501535,0.51049 -0.814993,0.51049 -0.02688,0 -0.05374,0 -0.08059,0 -0.340326,-0.0359 -0.649308,-0.29107 -0.828426,-0.68961 l -1.692676,-3.70777 -0.07613,-0.19703 -1.692676,-5.39597 -0.06269,-0.2642 -1.553858,-9.60078 -1.079194,-0.42989 c -0.174532,-0.0672 -0.340216,-0.20152 -0.4656,-0.38064 l -1.692676,-2.3599 c -0.129861,-0.17912 -0.219422,-0.40302 -0.268679,-0.64035 l -1.647895,-8.221567 -1.522515,-3.34057 -1.200098,-1.43295 -1.204576,0.24181 h -0.308981 l -2.364373,2.83008 c 0.01791,0.0358 0.03583,0.0716 0.05822,0.10747 -1.459822,1.37026 -2.364373,2.7853 -2.861428,4.2093 -0.08957,0.10747 -0.174642,0.23286 -0.255245,0.36272 -3.143542,0.77021 -5.866152,1.48669 -8.073797,2.09569 -1.66133,-1.67476 -3.967491,-2.71365 -6.515461,-2.71365 -0.326893,0 -0.653784,0.0179 -0.971722,0.0537 0.179121,-3.82867 0.671697,-8.64698 1.809105,-14.12355 1.119494,-5.39596 2.991291,-11.897986 6.085575,-18.941848 1.164273,0.770211 2.556925,1.222487 4.057049,1.222487 4.057048,0 7.348364,-3.291314 7.348364,-7.348364 0,-0.304503 -0.02239,-0.609004 -0.06269,-0.904551 2.189733,-0.640351 4.764571,-1.361307 7.684213,-2.113607 -0.174641,1.285181 -0.259722,2.633052 -0.223898,4.066006 0,0 -9.229117,6.013926 -10.366524,14.907197 -0.814991,6.35873 -0.622438,13.14287 0.88664,15.61471 0.08061,0.31346 0.174642,0.62692 0.277635,0.9359 l 0.04925,-0.0582 c 0.197032,-0.23733 0.447799,-0.36272 0.703043,-0.36272 0.05374,0 0.102986,0.004 0.156722,0.0179 l 2.740524,-2.81665 1.535947,-0.3045 c 0.05374,-0.009 0.102986,-0.0179 0.156722,-0.0179 0.255246,0 0.506012,0.12538 0.703043,0.36272 l 1.692676,2.02404 0.205987,0.33137 1.692676,3.71225 0.125378,0.38958 1.616551,8.06037 1.298613,1.813577 1.423997,0.56422 c 0.376151,0.15226 0.662742,0.57318 0.747823,1.09711 l 1.670286,10.31726 1.616551,5.16311 0.873207,1.91658 0.617961,-0.98515 1.625506,-5.83034 0.07164,-0.20598 1.638947,-3.91824 1.64341,-6.87817 3.37192,-19.501597 c 0.11196,-0.65827 0.54184,-1.12845 1.03442,-1.13293 h 0.009 c 0.4881,0 0.92246,0.45675 1.03889,1.11054 l 1.67924,9.04552 1.63894,6.52889 1.62551,1.49565 0.11195,0.322407 2.38677,6.54233 0.6493,-2.59723 c 0.12091,-0.48362 0.41645,-0.84186 0.77917,-0.95829 0.0806,-0.0269 0.16121,-0.0358 0.23733,-0.0358 0.28659,0 0.55975,0.15672 0.76574,0.43884 l 1.2404,1.73298 1.07471,-0.42988 c 0.0985,-0.0403 0.19704,-0.0582 0.30003,-0.0582 0.0761,0 0.15225,0.0134 0.22838,0.0314 l 3.38535,1.01202 c 0.31793,0.094 0.59109,0.38959 0.73439,0.78813 l 0.88216,2.46289 0.61796,-1.22697 1.66133,-4.30782 c 0.16568,-0.42988 0.47467,-0.72095 0.82843,-0.77469 0.0403,-0.004 0.0806,-0.009 0.12091,-0.009 0.30898,0 0.609,0.1836 0.81499,0.51497 l 0.10299,0.16569 1.4016,-10.379947 0.0269,-0.20151 1.69267,-8.76789 c 0.12541,-0.64483 0.5508,-1.0971 1.03889,-1.0971 h 0.86425 l 1.48221,-7.67078 c 0.0626,-0.33137 0.20599,-0.61348 0.4075,-0.81499 l 1.69268,-1.68372 c 0.18807,-0.18808 0.4075,-0.28212 0.63139,-0.28212 0.12982,0 0.2642,0.0313 0.38959,0.0985 0.34032,0.1836 0.5911,0.58662 0.66274,1.07919 l 3.35401,22.38542 3.28235,8.503687 0.26421,0.5284 c 0.77469,-1.39713 1.42398,-3.10772 1.49116,-4.97504 0.10307,-2.959937 0.13878,-5.785547 -0.90007,-8.212607 1.38818,-6.31843 -0.712,-23.178022 -0.1836,-34.672997 l -1.85386,-0.174623 c -0.37615,-0.03583 -0.72096,-0.313458 -0.90902,-0.73439 l -1.75089,-3.927186 -1.73299,-2.592751 c -0.10747,-0.165693 -0.19255,-0.362716 -0.23733,-0.573182 l -1.72401,-8.060363 -0.62244,-0.814991 -0.98068,1.831493 -1.77328,4.307816 c -0.20599,0.497056 -0.60005,0.783646 -1.01203,0.783646 -0.15232,0 -0.30897,-0.0403 -0.45676,-0.125377 l -0.47018,-0.264201 -1.54939,11.311375 c -0.0672,0.501534 -0.33136,0.922464 -0.69856,1.110539 -0.13881,0.07164 -0.28211,0.107472 -0.42988,0.107472 -0.23733,0 -0.47467,-0.09403 -0.6717,-0.282112 l -1.80462,-1.6882 -0.29555,-0.411973 -0.67618,-1.392651 -0.91798,2.574838 c -0.17016,0.470187 -0.51497,0.792601 -0.91351,0.850815 -0.0403,0.0044 -0.0851,0.009 -0.12538,0.009 -0.35376,0 -0.6896,-0.210464 -0.90903,-0.57766 l -1.32995,-2.23451 -1.05233,0.394061 -0.31794,0.05822 h -1.00306 l -1.53147,5.436266 c -0.1433,0.51049 -0.49258,0.877685 -0.91351,0.958289 l -1.0792,0.201483 -1.59416,6.855784 c -0.0716,0.30898 -0.2239,0.58214 -0.42541,0.77022 l -1.80462,1.68372 c -0.19704,0.18359 -0.43437,0.28211 -0.6717,0.28211 -0.12538,0 -0.25525,-0.0269 -0.37615,-0.0851 -0.35376,-0.16121 -0.62692,-0.53288 -0.72543,-0.99859 l -1.74642,-8.154402 -0.75678,-1.276225 -0.89559,1.504601 c -0.21942,0.371674 -0.55975,0.57766 -0.90903,0.57766 -0.0896,0 -0.1836,-0.01337 -0.27316,-0.0403 -0.44332,-0.138816 -0.77917,-0.604527 -0.85529,-1.182187 l -1.45982,-10.90388 -0.15673,0.179121 -1.72402,3.219667 c -0.17912,0.335847 -0.46123,0.564225 -0.77917,0.622439 l -1.80462,0.335848 c -0.0537,0.009 -0.11196,0.01337 -0.16568,0.01337 -0.27316,0 -0.54183,-0.125378 -0.7523,-0.362717 l -1.670286,-1.871795 -0.738867,-0.411975 -1.280702,2.633052 c -0.197032,0.407497 -0.541836,0.667219 -0.917986,0.689609 -0.01791,0 -0.03583,0 -0.05374,0 -0.353761,0 -0.694086,-0.214943 -0.909029,-0.577659 l -3.604774,-6.07214 -0.152254,-0.340326 -1.39713,-4.437678 c -0.371672,0.850816 -0.694087,1.746412 -0.9762,2.677831 -3.752546,0.940376 -6.990126,1.835972 -9.645568,2.615141 -0.801558,-1.209055 -1.956877,-2.162865 -3.313704,-2.722612 3.622685,-5.754204 8.136489,-11.624835 13.769786,-17.365604 2.377808,-2.422587 4.979514,-4.625753 7.746906,-6.640844 0.877683,0.586615 1.930009,0.931419 3.062938,0.931419 0.25973,0 0.51049,-0.02239 0.75678,-0.05822 0.60453,2.798737 1.22697,5.794506 1.86284,8.955959 -2.80321,0.291069 -6.900569,1.688198 -10.469519,6.703535 -0.461232,0.644829 -0.900074,1.325482 -1.321004,2.033004 l 0.241811,0.470187 1.746412,5.548217 2.507669,4.222735 0.926941,-1.907619 c 0.214943,-0.443321 0.586615,-0.694088 0.971722,-0.694088 0.152254,0 0.308981,0.0403 0.456754,0.120909 l 1.804626,1.012023 0.295548,0.241811 1.40609,1.580727 0.78812,-0.14777 1.51804,-2.843516 0.19255,-0.273157 1.80463,-2.024048 c 0.21046,-0.237332 0.47914,-0.362715 0.7523,-0.362715 0.12986,0 0.25972,0.02688 0.38062,0.08508 0.38959,0.179119 0.67618,0.613483 0.74335,1.137406 l 1.35682,10.160595 0.21046,-0.353761 c 0.21494,-0.362715 0.55527,-0.577658 0.90903,-0.577658 0.35376,0 0.69409,0.214943 0.90903,0.577658 l 1.80463,3.03607 0.19255,0.506012 1.36578,6.376643 0.15226,-0.143301 1.69267,-7.276716 c 0.12987,-0.550791 0.49258,-0.953809 0.93142,-1.038891 l 1.12397,-0.210465 1.57178,-5.575085 c 0.16567,-0.582137 0.59557,-0.971722 1.07471,-0.971722 h 1.63894 l 1.6479,-0.617961 c 0.10747,-0.0403 0.21494,-0.05822 0.32241,-0.05822 0.34928,0 0.68961,0.205987 0.90903,0.577659 l 0.64483,1.088149 1.01202,-2.830083 c 0.17464,-0.492579 0.54632,-0.819471 0.96725,-0.855294 0.0269,0 0.0493,0 0.0716,0 0.39406,0 0.76126,0.259722 0.97172,0.694087 l 1.68372,3.465956 0.1433,0.134331 1.48669,-10.827755 c 0.0626,-0.447797 0.27764,-0.828426 0.58661,-1.043369 0.17016,-0.116425 0.35376,-0.174642 0.54185,-0.174642 0.15672,0 0.30897,0.0403 0.45674,0.12091 l 0.83291,0.465709 1.30757,-3.174887 0.0672,-0.143301 1.80462,-3.371919 c 0.19255,-0.362715 0.50153,-0.59557 0.84187,-0.631394 0.0359,0 0.0672,-0.0044 0.10307,-0.0044 0.30451,0 0.59558,0.156723 0.81499,0.438843 l 1.80462,2.359895 c 0.13439,0.179118 0.23734,0.403018 0.28661,0.640351 l 1.73745,8.10962 1.63446,2.444977 0.12541,0.228378 1.50013,3.367439 1.22249,0.116425 c 0.63139,-13.496631 0.96724,-33.674405 -1.13294,-35.743232 -1.94792,-1.925532 -5.5079,-3.188322 -9.17986,-1.276225 -3.67194,1.912098 -6.32737,5.418355 -6.32737,5.418355 0,0 -6.29604,-5.015336 -16.69839,0.08061 -5.20789,2.552449 -8.01111,10.223228 -8.46338,11.544233 -0.74335,-3.716724 -1.46878,-7.20507 -2.17182,-10.424737 1.0165,-0.998589 1.65237,-2.391241 1.65237,-3.931666 0,-0.259723 -0.0224,-0.51049 -0.0582,-0.761257 14.47283,-7.809596 31.4802,-11.396457 44.98578,-12.041286"
       id="path78"
       style="fill:#006ca3;stroke-width:0.447797" />
    <path
       class="st22"
       d="m 83.693434,199.22454 c 1.81806,0.23733 4.4959,0.47913 8.27531,0.47913 6.31394,0 11.477056,-1.3389 14.871356,-4.16004 3.10772,-2.62857 5.35567,-6.88713 5.35567,-13.05779 0,-5.6915 -2.10464,-9.659 -5.45418,-12.14875 -3.10771,-2.34198 -7.079686,-3.44357 -13.201076,-3.44357 -3.6809,0 -7.17373,0.23733 -9.85156,0.67171 v 31.65931 z m 7.31702,-26.44695 c 0.62244,-0.14335 1.67476,-0.2866 3.30027,-0.2866 6.264686,0 10.187396,3.53761 10.138146,10.23219 0,7.69765 -4.30334,11.33377 -10.903886,11.2845 -0.90902,0 -1.91209,0 -2.53453,-0.14335 v -21.09129 z m 41.940756,18.31494 2.48527,8.27531 h 7.84095 l -9.99485,-32.2325 h -9.56496 l -9.85157,32.2325 h 7.55437 l 2.2972,-8.27531 h 9.22911 z m -8.1768,-5.45418 1.91211,-6.83788 c 0.52392,-1.86732 1.00306,-4.30333 1.48221,-6.21543 h 0.0941 c 0.47914,1.9121 1.05233,4.30333 1.62551,6.21543 l 2.01062,6.83788 z m 21.56596,12.24726 c 1.81806,1.00308 5.45417,1.96137 9.13508,1.96137 8.84847,0 13.00852,-4.58993 13.00852,-9.99485 0,-4.54515 -2.67782,-7.50957 -8.36934,-9.61422 -4.16005,-1.57626 -5.97811,-2.48528 -5.97811,-4.54516 0,-1.67477 1.53148,-3.10771 4.68845,-3.10771 3.15697,0 5.45419,0.90902 6.74385,1.53146 l 1.62549,-5.88405 c -1.9121,-0.85978 -4.58993,-1.62552 -8.22604,-1.62552 -7.60362,0 -12.19355,4.2093 -12.19355,9.70827 0,4.68843 3.49283,7.65285 8.8485,9.5157 3.87346,1.38817 5.40492,2.53453 5.40492,4.54514 0,2.01062 -1.7688,3.49283 -5.11834,3.49283 -3.1077,0 -6.12139,-1.00306 -8.08275,-2.01062 l -1.48221,6.02736 z m 27.06938,-30.75476 v 32.2325 h 7.31702 v -13.48767 h 12.00546 v 13.48767 H 200 v -32.2325 h -7.26777 v 12.3861 h -12.00546 v -12.3861 z"
       id="path79"
       style="fill:#006ca3;stroke-width:0.447797" />
    <path
       class="st22"
       d="M 19.179186,179.80802 H 7.317017 v -6.69459 h 12.578645 v -5.97809 H 0 v 32.2325 h 20.562881 v -5.97811 H 7.317017 v -7.65287 h 11.862169 z m 25.537917,0 H 32.854934 v -6.69459 h 12.578645 v -5.97809 H 25.537916 v 32.2325 h 20.562881 v -5.97811 H 32.854934 v -7.65287 h 11.862169 z m 33.284821,1.09709 h -12.00546 v 5.69153 h 4.97503 v 6.74382 c -0.57318,0.28661 -1.91209,0.47916 -3.58686,0.47916 -5.9781,0 -10.13815,-3.92271 -10.13815,-10.56804 0,-6.98116 4.58993,-10.42474 10.66655,-10.42474 3.53761,0 5.74077,0.62244 7.50957,1.38818 l 1.53147,-5.83481 c -1.57625,-0.76573 -4.78248,-1.57624 -8.94252,-1.57624 -10.56803,0 -18.3642,6.12139 -18.41345,16.83271 -0.0493,4.73324 1.58072,8.94253 4.54515,11.7144 2.96442,2.87038 7.22298,4.35259 13.10256,4.35259 4.25856,0 8.51264,-1.05232 10.76059,-1.81806 V 180.9096 Z"
       id="path80"
       style="fill:#006ca3;stroke-width:0.447797" />
    <path
       class="st22"
       d="m 99.724594,113.78546 c -3.02711,0 -5.8348,0.92246 -8.15888,2.50766 -3.84658,2.61514 -6.37216,7.02595 -6.37216,12.02786 0,6.05871 3.70777,11.25317 8.98284,13.43394 0.70303,-1.92553 1.63445,-4.47799 2.87037,-7.85886 0.17018,-0.46123 -0.0493,-1.01651 -0.49258,-1.23592 -0.9359,-0.47018 -2.12704,-2.26585 -2.12704,-4.33469 0,-2.92859 2.37333,-5.29745 5.30194,-5.29745 2.928586,0 5.297446,2.37333 5.297446,5.29745 0,2.07331 -1.19114,3.86451 -2.12704,4.33469 -0.43884,0.21941 -0.65827,0.77469 -0.49258,1.23592 1.23593,3.38087 2.16734,5.93333 2.87039,7.85886 5.27057,-2.18077 8.98282,-7.37523 8.98282,-13.43394 0,-8.02455 -6.50651,-14.53552 -14.535526,-14.53552 M 185.95704,80.263303 c 1.18219,5.64226 1.67478,10.60386 1.84494,14.51313 -1.7285,0.43437 -3.26444,1.35235 -4.45111,2.61067 -2.31513,-0.69857 -5.25267,-1.53595 -8.78132,-2.43603 l -8.91119,-31.381675 -2.46289,-12.095023 c 3.67642,0.958287 6.79758,1.885229 9.3366,2.695744 -0.0626,0.389583 -0.10307,0.783645 -0.10307,1.191141 0,4.05705 3.29132,7.348366 7.34838,7.348366 0.21494,0 0.42988,-0.01337 0.64483,-0.03135 2.7629,6.524416 4.47797,12.542827 5.53476,17.593987 M 174.25602,50.538479 c -0.25524,0.291068 -0.49258,0.595571 -0.69857,0.922462 -2.95098,-0.940375 -6.70353,-2.041958 -11.20389,-3.179364 -0.008,-0.01337 -0.0223,-0.02688 -0.0313,-0.03583 -0.0403,-0.04478 -0.0851,-0.08061 -0.12982,-0.12091 -0.0179,-0.01791 -0.0313,-0.03583 -0.0538,-0.04925 L 148.436,37.735933 c 0.60899,-3.121152 1.11501,-5.960191 1.55833,-8.476815 0.23734,-1.347872 0.45675,-2.606184 0.67169,-3.770459 0.0313,0 0.0626,0.0044 0.0895,0.0044 0.58661,0 1.14636,-0.09403 1.67476,-0.259722 2.42707,1.831494 4.72428,3.815239 6.84235,5.973624 6.27813,6.399033 11.16808,12.959273 14.97885,19.335917 M 145.28356,20.491234 c 0.16569,1.77328 1.16428,3.304749 2.60619,4.18691 -0.23286,1.253836 -0.47467,2.615141 -0.72991,4.079441 -0.38959,2.216599 -0.82842,4.683966 -1.34339,7.366275 L 120.88753,22.389898 c 0,0 -0.0223,-0.009 -0.0313,-0.01337 -0.1836,-0.09403 -0.38959,-0.156722 -0.609,-0.165692 -0.0223,0 -0.0493,0 -0.0716,0 -0.0582,-0.02239 -0.11645,-0.04925 -0.17463,-0.06269 l -16.9805,-4.276471 -0.76127,-7.09312 c 1.50013,-0.461232 2.71366,-1.553858 3.36744,-2.959944 12.71747,1.522512 27.27091,5.458657 39.65699,12.668203 m -43.45879,43.342364 c 0,0 0.0269,-0.01337 0.0403,-0.01791 l 18.54779,22.792905 c -0.62243,1.0389 -0.99858,2.24348 -0.99858,3.5421 0,0.18358 0.0135,0.36271 0.0269,0.54183 l -16.87303,-0.17912 -0.74783,-26.679804 z m 1.02545,29.563625 17.48651,0.18359 c 0,0 0.008,0.009 0.008,0.0179 l -16.17895,8.530547 z m 5.92437,9.556007 13.5862,-7.160287 c 0.73886,0.52392 1.58072,0.90455 2.49423,1.11053 l -0.0895,6.358737 -15.98638,-0.30451 z m 3.39431,2.94203 13.37573,0.25524 20.639,5.13177 c -0.0313,0.21942 -0.0537,0.44332 -0.0537,0.67169 0,0.28659 0.0313,0.56871 0.0806,0.84186 l -20.37033,12.27414 c -0.3672,-0.23733 -0.77021,-0.42093 -1.2001,-0.55079 -0.64931,-4.74219 -2.41811,-9.05895 -5.15415,-12.43087 -2.31512,-2.85695 -4.89892,-4.82726 -7.31703,-6.19304 m 12.07713,27.85751 c 0.51496,-0.10748 1.00754,-0.29107 1.44638,-0.5508 l 14.69673,12.39952 c -3.75703,0.70752 -10.28592,1.77328 -14.16833,1.45982 -3.64059,-0.29554 -6.03631,-2.07777 -7.17373,-3.15249 1.37027,-1.70163 3.97198,-5.39596 5.19895,-10.15159 m 18.39553,9.97246 -15.02362,-12.67268 c 0.27315,-0.60005 0.4254,-1.26278 0.4254,-1.96583 0,-0.63139 -0.12541,-1.23144 -0.3448,-1.78224 l 19.85537,-11.96067 c 0.29107,0.29107 0.62692,0.53736 0.98514,0.74335 l -5.893,27.63807 z m 3.21966,-1.29412 5.49002,-25.73943 c 0.63139,-0.0582 1.22695,-0.23733 1.75984,-0.51944 l 9.01417,11.56213 -16.2685,14.69674 z m 17.57159,-17.70594 -8.27977,-10.61728 c 0.33137,-0.64931 0.51943,-1.37922 0.51943,-2.15839 0,-0.47914 -0.0716,-0.93589 -0.2015,-1.37474 l 14.28027,-10.06649 -6.31843,24.21243 z m 0.91799,-55.22691 7.14238,25.166243 -9.07238,-1.08367 c -0.21943,-1.88971 -1.38817,-3.48387 -3.01817,-4.29886 L 164.34644,69.4983 Z m -7.84093,30.239793 c 0.14335,0.009 0.28658,0.0179 0.42989,0.0179 2.27032,0 4.22273,-1.37026 5.07353,-3.33162 l 7.29464,0.86873 -14.89824,10.505337 2.10465,-8.064837 z m -2.94205,-9.88738 c -0.81498,0.62692 -1.45086,1.47774 -1.81806,2.46289 -5.69599,-0.62244 -11.89351,-1.11949 -18.53435,-1.50012 0.0223,-0.21942 0.0359,-0.44332 0.0359,-0.66722 0,-2.07778 -0.91799,-3.93614 -2.36886,-5.20341 l 10.74269,-33.141527 c 0.2418,0.05822 0.49257,0.09852 0.74781,0.120909 l 11.19943,37.932968 z m -25.77972,-60.367637 16.85064,9.287329 -2.22556,3.662986 c -0.47914,0.03583 -0.93142,0.147769 -1.3613,0.317938 L 127.78375,29.487554 Z m -6.811,11.047174 0.51496,-13.272731 17.29843,17.293958 -14.7818,-0.779168 c -0.41646,-1.518036 -1.55834,-2.736047 -3.03608,-3.246537 M 127.73,96.903533 c 1.93897,-0.40302 3.58687,-1.60311 4.56307,-3.25997 6.89608,0.38063 13.32198,0.8956 19.20157,1.53595 0.25973,1.48221 1.10606,2.76291 2.29273,3.58686 l -2.20765,8.467857 c -0.22389,-0.0313 -0.44779,-0.0582 -0.67617,-0.0582 -1.3434,0 -2.55693,0.55975 -3.42565,1.45534 l -19.8464,-4.93473 z m -1.17322,-13.65784 -5.06013,-33.92069 c 1.11055,-0.541836 1.97927,-1.495645 2.40469,-2.668877 l 14.1325,0.743346 c 0.0493,1.065759 0.43884,2.046435 1.07472,2.816649 l -10.79194,33.302732 c -0.55974,-0.16569 -1.15084,-0.25524 -1.75984,-0.27316 m -7.90812,-33.504239 5.07355,34.001299 c -0.47018,0.19255 -0.90454,0.45228 -1.31652,0.73887 L 104.03241,61.903589 c 0.37168,-0.649307 0.59557,-1.392653 0.59557,-2.198689 0,-0.51049 -0.0941,-0.994112 -0.25077,-1.450866 l 12.30998,-9.332108 c 0.57765,0.403018 1.23592,0.698565 1.96134,0.814993 m -16.05802,-15.171396 0.48362,-13.707094 14.34745,3.613729 -14.8266,10.093365 z m 16.02668,-7.428967 -0.51944,13.321989 c -0.87321,0.255244 -1.6479,0.743344 -2.23899,1.406086 l -12.05472,-4.648143 14.81315,-10.08441 z m -3.97196,17.902961 c 0,0.564226 0.10307,1.101583 0.28658,1.607596 l -12.33683,9.350021 c -0.23733,-0.152254 -0.48362,-0.29107 -0.74782,-0.398541 l 0.55975,-15.82518 12.27415,4.728747 c -0.0223,0.17912 -0.0313,0.358238 -0.0313,0.541835 m 47.99498,19.412043 -6.06319,24.252735 c -0.11187,0.009 -0.2239,0.0314 -0.33585,0.0448 l -11.06062,-37.46727 c 0.21942,-0.129863 0.42988,-0.273157 0.62692,-0.434365 l 16.83273,13.599625 z M 147.2763,45.599266 c -0.35824,-1.016503 -1.0389,-1.876275 -1.93449,-2.449455 l 1.7285,-2.843517 9.09925,6.86922 z m 12.84731,5.203412 1.93002,9.475404 -14.48626,-11.70096 z m 31.40856,43.821505 c -0.17913,-4.03018 -0.68961,-9.1306 -1.90314,-14.95645 -1.08815,-5.23924 -2.85695,-11.481539 -5.70494,-18.243289 1.93,-1.325481 3.20175,-3.54656 3.20175,-6.063184 0,-4.057049 -3.29132,-7.348363 -7.34836,-7.348363 -0.85977,0 -1.67925,0.161207 -2.44947,0.434364 -3.93613,-6.546807 -8.96043,-13.281688 -15.40424,-19.841928 -1.96583,-2.001656 -4.13765,-3.913754 -6.47963,-5.731813 0.51943,-0.841861 0.82394,-1.827016 0.82394,-2.888298 0,-3.045026 -2.46736,-5.512393 -5.51239,-5.512393 -1.84941,0 -3.48387,0.913508 -4.48246,2.310638 -4.23617,-2.409153 -8.83057,-4.549626 -13.72501,-6.367687 C 124.17888,7.308063 115.11098,5.181022 105.95797,4.119742 105.34002,1.75089 103.19059,0 100.62918,0 c -3.045026,0 -5.512386,2.467366 -5.512386,5.512393 0,2.606184 1.81358,4.786961 4.24512,5.360141 l 0.877676,8.203659 -0.635856,18.0373 c 0,0 -0.008,0.01791 -0.0135,0.02688 -0.12541,0.317938 -0.11644,0.653785 -0.0223,0.958288 l -0.609,17.343214 c -1.85837,0.528403 -3.21967,2.234512 -3.21967,4.263036 0,2.028526 1.35234,3.721202 3.19728,4.25856 l 0.78365,28.009762 c 0,0.0313 0.008,0.0582 0.0135,0.0896 0,0.0269 0,0.0582 0,0.0851 l 2.037486,13.487677 1.14189,0.0896 c 0.0806,0.004 8.29321,0.72991 14.32505,8.17231 2.34198,2.8883 3.87793,6.58711 4.49141,10.6755 -1.88075,0.64036 -3.23309,2.41811 -3.23309,4.5138 0,1.93897 1.15979,3.60478 2.82111,4.3526 -1.56729,5.52136 -5.20341,9.45302 -5.24819,9.50227 l -0.8329,0.8777 0.72096,0.97171 c 0.13878,0.18808 3.49729,4.60337 10.01724,5.13177 0.55079,0.0448 1.14189,0.0672 1.76433,0.0672 6.26469,0 15.65052,-2.05538 16.14758,-2.16285 0,0 0,0 0,0 0,0 0.005,0 0.005,0 l 0.37166,-0.0806 21.0913,-19.0538 8.02005,-30.750277 0.33138,-0.23286 c 3.11667,0.7926 5.7721,1.53595 7.94841,2.18526 -0.52392,1.155307 -0.82395,2.436017 -0.82395,3.783887 0,5.07355 4.11078,9.18434 9.18433,9.18434 5.07355,0 9.18433,-4.11079 9.18433,-9.18434 0,-4.563057 -3.32713,-8.337997 -7.68868,-9.054467"
       id="path81"
       style="fill:#006ca3;stroke-width:0.447797" />
  </g>
</svg>
