<?xml version="1.0" encoding="UTF-8" standalone="no"?>
<!-- Created with Inkscape (http://www.inkscape.org/) -->

<svg
   width="200mm"
   height="200mm"
   viewBox="0 0 200 200"
   version="1.1"
   id="svg1"
   inkscape:version="1.4 (e7c3feb1, 2024-10-09)"
   sodipodi:docname="eegdash_orage.svg"
   xmlns:inkscape="http://www.inkscape.org/namespaces/inkscape"
   xmlns:sodipodi="http://sodipodi.sourceforge.net/DTD/sodipodi-0.dtd"
   xmlns="http://www.w3.org/2000/svg"
   xmlns:svg="http://www.w3.org/2000/svg">
  <sodipodi:namedview
     id="namedview1"
     pagecolor="#ffffff"
     bordercolor="#000000"
     borderopacity="0.25"
     inkscape:showpageshadow="2"
     inkscape:pageopacity="0.0"
     inkscape:pagecheckerboard="0"
     inkscape:deskcolor="#d1d1d1"
     inkscape:document-units="mm"
     inkscape:zoom="0.6592312"
     inkscape:cx="396.67419"
     inkscape:cy="561.25984"
     inkscape:window-width="1512"
     inkscape:window-height="917"
     inkscape:window-x="0"
     inkscape:window-y="65"
     inkscape:window-maximized="0"
     inkscape:current-layer="layer1" />
  <defs
     id="defs1">
    <clipPath
       id="clippath-4">
      <rect
         class="st11"
         x="-3883.79"
         y="73.910004"
         width="446.63"
         height="447.45001"
         id="rect5" />
    </clipPath>
  </defs>
  <g
     inkscape:label="Layer 1"
     inkscape:groupmode="layer"
     id="layer1">
    <g
       class="st2"
       clip-path="url(#clippath-4)"
       id="g73"
       transform="matrix(0.44779799,0,0,0.44779799,1739.1534,-33.096751)">
      <path
         class="st9"
         d="m -3664.88,89.95 -0.39,-8.29 c -26.21,1.25 -52.74,6.61 -76.71,15.51 -9.62,3.57 -18.72,7.7 -27.22,12.31 -2.19,-2.01 -5.11,-3.25 -8.32,-3.25 -6.8,0 -12.31,5.51 -12.31,12.31 0,1.25 0.19,2.45 0.53,3.58 -6.72,4.89 -12.85,10.13 -18.29,15.67 -14.15,14.42 -25.25,29.21 -33.98,43.61 -7.69,1.36 -13.53,8.06 -13.53,16.14 0,2.37 0.51,4.62 1.42,6.65 -8.18,17.75 -12.98,34.17 -15.77,47.63 -2.98,14.35 -4.06,26.71 -4.34,36.09 -5.93,3.6 -9.91,10.09 -9.91,17.53 0,11.33 9.18,20.51 20.51,20.51 11.33,0 20.51,-9.18 20.51,-20.51 0,-2.8 -0.56,-5.46 -1.58,-7.89 3.34,-0.91 7.16,-1.91 11.36,-2.97 -0.51,5.04 -0.19,11.23 0.84,17.21 1.35,7.78 7.66,14.25 13.42,18.67 -1.98,6.58 -3.14,14.61 0.35,19.92 6.85,10.41 8.76,8.87 8.76,8.87 0,0 -4.95,12.34 1.9,18.51 6.85,6.17 15.23,6.55 15.23,6.55 0,0 5.33,17.74 18.28,17.35 12.95,-0.39 20.19,-3.86 20.19,-3.86 0,0 8.76,6.17 21.71,6.55 15.44,3.95 31.17,-5.91 36.51,-9.74 -9.22,-8.97 -14.95,-21.5 -14.95,-35.37 0,-22.13 14.58,-40.81 34.64,-47.08 l -0.55,-1.1 -0.14,-0.33 -7.56,-19.58 -0.23,-0.88 -6.81,-45.45 -0.08,0.08 -3.56,18.45 c -0.28,1.44 -1.23,2.45 -2.32,2.45 h -1.93 l -3.26,16.91 -3.76,30.36 c -0.11,1.29 -0.78,2.38 -1.68,2.75 -0.23,0.1 -0.46,0.14 -0.69,0.14 -0.69,0 -1.36,-0.41 -1.82,-1.14 l -1.49,-2.37 -2.13,5.53 -0.14,0.33 -3.78,7.53 c -0.45,0.9 -1.19,1.43 -1.98,1.43 -0.06,0 -0.12,0 -0.17,0 -0.85,-0.09 -1.6,-0.79 -1.98,-1.83 l -3.27,-9.12 -5.83,-1.74 -3.19,1.27 c -0.22,0.09 -0.44,0.13 -0.67,0.13 -0.64,0 -1.26,-0.35 -1.71,-0.98 l -1.06,-1.48 -2.52,10.03 c -0.33,1.33 -1.25,2.22 -2.27,2.22 0,0 -0.01,0 -0.02,0 -1.03,-0.01 -1.94,-0.93 -2.26,-2.27 l -7.47,-23.54 -3.62,-3.32 -0.24,-0.68 -3.78,-15.06 -0.06,-0.26 -1.37,-7.38 -5.31,30.67 -0.05,0.27 -3.78,15.81 -0.2,0.61 -3.68,8.81 -3.71,13.32 -0.42,0.97 -3.78,6.02 c -0.46,0.73 -1.12,1.14 -1.82,1.14 -0.06,0 -0.12,0 -0.18,0 -0.76,-0.08 -1.45,-0.65 -1.85,-1.54 l -3.78,-8.28 -0.17,-0.44 -3.78,-12.05 -0.14,-0.59 -3.47,-21.44 -2.41,-0.96 c -0.39,-0.15 -0.76,-0.45 -1.04,-0.85 l -3.78,-5.27 c -0.29,-0.4 -0.49,-0.9 -0.6,-1.43 l -3.68,-18.36 -3.4,-7.46 -2.68,-3.2 -2.69,0.54 h -0.69 l -5.28,6.32 c 0.04,0.08 0.08,0.16 0.13,0.24 -3.26,3.06 -5.28,6.22 -6.39,9.4 -0.2,0.24 -0.39,0.52 -0.57,0.81 -7.02,1.72 -13.1,3.32 -18.03,4.68 -3.71,-3.74 -8.86,-6.06 -14.55,-6.06 -0.73,0 -1.46,0.04 -2.17,0.12 0.4,-8.55 1.5,-19.31 4.04,-31.54 2.5,-12.05 6.68,-26.57 13.59,-42.3 2.6,1.72 5.71,2.73 9.06,2.73 9.06,0 16.41,-7.35 16.41,-16.41 0,-0.68 -0.05,-1.36 -0.14,-2.02 4.89,-1.43 10.64,-3.04 17.16,-4.72 -0.39,2.87 -0.58,5.88 -0.5,9.08 0,0 -20.61,13.43 -23.15,33.29 -1.82,14.2 -1.39,29.35 1.98,34.87 0.18,0.7 0.39,1.4 0.62,2.09 l 0.11,-0.13 c 0.44,-0.53 1,-0.81 1.57,-0.81 0.12,0 0.23,0.01 0.35,0.04 l 6.12,-6.29 3.43,-0.68 c 0.12,-0.02 0.23,-0.04 0.35,-0.04 0.57,0 1.13,0.28 1.57,0.81 l 3.78,4.52 0.46,0.74 3.78,8.29 0.28,0.87 3.61,18 2.9,4.05 3.18,1.26 c 0.84,0.34 1.48,1.28 1.67,2.45 l 3.73,23.04 3.61,11.53 1.95,4.28 1.38,-2.2 3.63,-13.02 0.16,-0.46 3.66,-8.75 3.67,-15.36 7.53,-43.55 c 0.25,-1.47 1.21,-2.52 2.31,-2.53 h 0.02 c 1.09,0 2.06,1.02 2.32,2.48 l 3.75,20.2 3.66,14.58 3.63,3.34 0.25,0.72 5.33,14.61 1.45,-5.8 c 0.27,-1.08 0.93,-1.88 1.74,-2.14 0.18,-0.06 0.36,-0.08 0.53,-0.08 0.64,0 1.25,0.35 1.71,0.98 l 2.77,3.87 2.4,-0.96 c 0.22,-0.09 0.44,-0.13 0.67,-0.13 0.17,0 0.34,0.03 0.51,0.07 l 7.56,2.26 c 0.71,0.21 1.32,0.87 1.64,1.76 l 1.97,5.5 1.38,-2.74 3.71,-9.62 c 0.37,-0.96 1.06,-1.61 1.85,-1.73 0.09,-0.01 0.18,-0.02 0.27,-0.02 0.69,0 1.36,0.41 1.82,1.15 l 0.23,0.37 3.13,-23.18 0.06,-0.45 3.78,-19.58 c 0.28,-1.44 1.23,-2.45 2.32,-2.45 h 1.93 l 3.31,-17.13 c 0.14,-0.74 0.46,-1.37 0.91,-1.82 l 3.78,-3.76 c 0.42,-0.42 0.91,-0.63 1.41,-0.63 0.29,0 0.59,0.07 0.87,0.22 0.76,0.41 1.32,1.31 1.48,2.41 l 7.49,49.99 7.33,18.99 0.59,1.18 c 1.73,-3.12 3.18,-6.94 3.33,-11.11 0.23,-6.61 0.31,-12.92 -2.01,-18.34 3.1,-14.11 -1.59,-51.76 -0.41,-77.43 l -4.14,-0.39 c -0.84,-0.08 -1.61,-0.7 -2.03,-1.64 l -3.91,-8.77 -3.87,-5.79 c -0.24,-0.37 -0.43,-0.81 -0.53,-1.28 l -3.85,-18 -1.39,-1.82 -2.19,4.09 -3.96,9.62 c -0.46,1.11 -1.34,1.75 -2.26,1.75 -0.34,0 -0.69,-0.09 -1.02,-0.28 l -1.05,-0.59 -3.46,25.26 c -0.15,1.12 -0.74,2.06 -1.56,2.48 -0.31,0.16 -0.63,0.24 -0.96,0.24 -0.53,0 -1.06,-0.21 -1.5,-0.63 l -4.03,-3.77 -0.66,-0.92 -1.51,-3.11 -2.05,5.75 c -0.38,1.05 -1.15,1.77 -2.04,1.9 -0.09,0.01 -0.19,0.02 -0.28,0.02 -0.79,0 -1.54,-0.47 -2.03,-1.29 l -2.97,-4.99 -2.35,0.88 -0.71,0.13 h -2.24 l -3.42,12.14 c -0.32,1.14 -1.1,1.96 -2.04,2.14 l -2.41,0.45 -3.56,15.31 c -0.16,0.69 -0.5,1.3 -0.95,1.72 l -4.03,3.76 c -0.44,0.41 -0.97,0.63 -1.5,0.63 -0.28,0 -0.57,-0.06 -0.84,-0.19 -0.79,-0.36 -1.4,-1.19 -1.62,-2.23 l -3.9,-18.21 -1.69,-2.85 -2,3.36 c -0.49,0.83 -1.25,1.29 -2.03,1.29 -0.2,0 -0.41,-0.03 -0.61,-0.09 -0.99,-0.31 -1.74,-1.35 -1.91,-2.64 l -3.26,-24.35 -0.35,0.4 -3.85,7.19 c -0.4,0.75 -1.03,1.26 -1.74,1.39 l -4.03,0.75 c -0.12,0.02 -0.25,0.03 -0.37,0.03 -0.61,0 -1.21,-0.28 -1.68,-0.81 l -3.73,-4.18 -1.65,-0.92 -2.86,5.88 c -0.44,0.91 -1.21,1.49 -2.05,1.54 -0.04,0 -0.08,0 -0.12,0 -0.79,0 -1.55,-0.48 -2.03,-1.29 l -8.05,-13.56 -0.34,-0.76 -3.12,-9.91 c -0.83,1.9 -1.55,3.9 -2.18,5.98 -8.38,2.1 -15.61,4.1 -21.54,5.84 -1.79,-2.7 -4.37,-4.83 -7.4,-6.08 8.09,-12.85 18.17,-25.96 30.75,-38.78 5.31,-5.41 11.12,-10.33 17.3,-14.83 1.96,1.31 4.31,2.08 6.84,2.08 0.58,0 1.14,-0.05 1.69,-0.13 1.35,6.25 2.74,12.94 4.16,20 -6.26,0.65 -15.41,3.77 -23.38,14.97 -1.03,1.44 -2.01,2.96 -2.95,4.54 l 0.54,1.05 3.9,12.39 5.6,9.43 2.07,-4.26 c 0.48,-0.99 1.31,-1.55 2.17,-1.55 0.34,0 0.69,0.09 1.02,0.27 l 4.03,2.26 0.66,0.54 3.14,3.53 1.76,-0.33 3.39,-6.35 0.43,-0.61 4.03,-4.52 c 0.47,-0.53 1.07,-0.81 1.68,-0.81 0.29,0 0.58,0.06 0.85,0.19 0.87,0.4 1.51,1.37 1.66,2.54 l 3.03,22.69 0.47,-0.79 c 0.48,-0.81 1.24,-1.29 2.03,-1.29 0.79,0 1.55,0.48 2.03,1.29 l 4.03,6.78 0.43,1.13 3.05,14.24 0.34,-0.32 3.78,-16.25 c 0.29,-1.23 1.1,-2.13 2.08,-2.32 l 2.51,-0.47 3.51,-12.45 c 0.37,-1.3 1.33,-2.17 2.4,-2.17 h 3.66 l 3.68,-1.38 c 0.24,-0.09 0.48,-0.13 0.72,-0.13 0.78,0 1.54,0.46 2.03,1.29 l 1.44,2.43 2.26,-6.32 c 0.39,-1.1 1.22,-1.83 2.16,-1.91 0.06,0 0.11,0 0.16,0 0.88,0 1.7,0.58 2.17,1.55 l 3.76,7.74 0.32,0.3 3.32,-24.18 c 0.14,-1 0.62,-1.85 1.31,-2.33 0.38,-0.26 0.79,-0.39 1.21,-0.39 0.35,0 0.69,0.09 1.02,0.27 l 1.86,1.04 2.92,-7.09 0.15,-0.32 4.03,-7.53 c 0.43,-0.81 1.12,-1.33 1.88,-1.41 0.08,0 0.15,-0.01 0.23,-0.01 0.68,0 1.33,0.35 1.82,0.98 l 4.03,5.27 c 0.3,0.4 0.53,0.9 0.64,1.43 l 3.88,18.11 3.65,5.46 0.28,0.51 3.35,7.52 2.73,0.26 c 1.41,-30.14 2.16,-75.2 -2.53,-79.82 -4.35,-4.3 -12.3,-7.12 -20.5,-2.85 -8.2,4.27 -14.13,12.1 -14.13,12.1 0,0 -14.06,-11.2 -37.29,0.18 -11.63,5.7 -17.89,22.83 -18.9,25.78 -1.66,-8.3 -3.28,-16.09 -4.85,-23.28 2.27,-2.23 3.69,-5.34 3.69,-8.78 0,-0.58 -0.05,-1.14 -0.13,-1.7 32.32,-17.44 70.3,-25.45 100.46,-26.89"
         id="path70"
         style="fill:#f7941d" />
      <path
         class="st9"
         d="m -3696.89,519.98 c 4.06,0.53 10.04,1.07 18.48,1.07 14.1,0 25.63,-2.99 33.21,-9.29 6.94,-5.87 11.96,-15.38 11.96,-29.16 0,-12.71 -4.7,-21.57 -12.18,-27.13 -6.94,-5.23 -15.81,-7.69 -29.48,-7.69 -8.22,0 -16.02,0.53 -22,1.5 v 70.7 z m 16.34,-59.06 c 1.39,-0.32 3.74,-0.64 7.37,-0.64 13.99,0 22.75,7.9 22.64,22.85 0,17.19 -9.61,25.31 -24.35,25.2 -2.03,0 -4.27,0 -5.66,-0.32 v -47.1 z m 93.66,40.9 5.55,18.48 h 17.51 l -22.32,-71.98 h -21.36 l -22,71.98 h 16.87 l 5.13,-18.48 h 20.61 z m -18.26,-12.18 4.27,-15.27 c 1.17,-4.17 2.24,-9.61 3.31,-13.88 h 0.21 c 1.07,4.27 2.35,9.61 3.63,13.88 l 4.49,15.27 z m 48.16,27.35 c 4.06,2.24 12.18,4.38 20.4,4.38 19.76,0 29.05,-10.25 29.05,-22.32 0,-10.15 -5.98,-16.77 -18.69,-21.47 -9.29,-3.52 -13.35,-5.55 -13.35,-10.15 0,-3.74 3.42,-6.94 10.47,-6.94 7.05,0 12.18,2.03 15.06,3.42 l 3.63,-13.14 c -4.27,-1.92 -10.25,-3.63 -18.37,-3.63 -16.98,0 -27.23,9.4 -27.23,21.68 0,10.47 7.8,17.09 19.76,21.25 8.65,3.1 12.07,5.66 12.07,10.15 0,4.49 -3.95,7.8 -11.43,7.8 -6.94,0 -13.67,-2.24 -18.05,-4.49 l -3.31,13.46 z m 60.45,-68.68 v 71.98 h 16.34 v -30.12 h 26.81 v 30.12 h 16.23 v -71.98 h -16.23 v 27.66 h -26.81 v -27.66 z"
         id="path71"
         style="fill:#f7941d" />
      <path
         class="st9"
         d="m -3840.96,476.62 h -26.49 v -14.95 h 28.09 v -13.35 h -44.43 v 71.98 h 45.92 v -13.35 h -29.58 v -17.09 h 26.49 z m 57.03,0 h -26.49 v -14.95 h 28.09 v -13.35 h -44.43 v 71.98 h 45.92 v -13.35 h -29.58 v -17.09 h 26.49 z m 74.33,2.45 h -26.81 v 12.71 h 11.11 v 15.06 c -1.28,0.64 -4.27,1.07 -8.01,1.07 -13.35,0 -22.64,-8.76 -22.64,-23.6 0,-15.59 10.25,-23.28 23.82,-23.28 7.9,0 12.82,1.39 16.77,3.1 l 3.42,-13.03 c -3.52,-1.71 -10.68,-3.52 -19.97,-3.52 -23.6,0 -41.01,13.67 -41.12,37.59 -0.11,10.57 3.53,19.97 10.15,26.16 6.62,6.41 16.13,9.72 29.26,9.72 9.51,0 19.01,-2.35 24.03,-4.06 v -37.91 z"
         id="path72"
         style="fill:#f7941d" />
      <path
         class="st9"
         d="m -3661.1,328 c -6.76,0 -13.03,2.06 -18.22,5.6 -8.59,5.84 -14.23,15.69 -14.23,26.86 0,13.53 8.28,25.13 20.06,30 1.57,-4.3 3.65,-10 6.41,-17.55 0.38,-1.03 -0.11,-2.27 -1.1,-2.76 -2.09,-1.05 -4.75,-5.06 -4.75,-9.68 0,-6.54 5.3,-11.83 11.84,-11.83 6.54,0 11.83,5.3 11.83,11.83 0,4.63 -2.66,8.63 -4.75,9.68 -0.98,0.49 -1.47,1.73 -1.1,2.76 2.76,7.55 4.84,13.25 6.41,17.55 11.77,-4.87 20.06,-16.47 20.06,-30 0,-17.92 -14.53,-32.46 -32.46,-32.46 m 192.58,-74.86 c 2.64,12.6 3.74,23.68 4.12,32.41 -3.86,0.97 -7.29,3.02 -9.94,5.83 -5.17,-1.56 -11.73,-3.43 -19.61,-5.44 l -19.9,-70.08 -5.5,-27.01 c 8.21,2.14 15.18,4.21 20.85,6.02 -0.14,0.87 -0.23,1.75 -0.23,2.66 0,9.06 7.35,16.41 16.41,16.41 0.48,0 0.96,-0.03 1.44,-0.07 6.17,14.57 10,28.01 12.36,39.29 m -26.13,-66.4 c -0.57,0.65 -1.1,1.33 -1.56,2.06 -6.59,-2.1 -14.97,-4.56 -25.02,-7.1 -0.02,-0.03 -0.05,-0.06 -0.07,-0.08 -0.09,-0.1 -0.19,-0.18 -0.29,-0.27 -0.04,-0.04 -0.07,-0.08 -0.12,-0.11 l -30.6,-23.09 c 1.36,-6.97 2.49,-13.31 3.48,-18.93 0.53,-3.01 1.02,-5.82 1.5,-8.42 0.07,0 0.14,0.01 0.2,0.01 1.31,0 2.56,-0.21 3.74,-0.58 5.42,4.09 10.55,8.52 15.28,13.34 14.02,14.29 24.94,28.94 33.45,43.18 m -64.7,-67.11 c 0.37,3.96 2.6,7.38 5.82,9.35 -0.52,2.8 -1.06,5.84 -1.63,9.11 -0.87,4.95 -1.85,10.46 -3,16.45 l -55.67,-30.67 c 0,0 -0.05,-0.02 -0.07,-0.03 -0.41,-0.21 -0.87,-0.35 -1.36,-0.37 -0.05,0 -0.11,0 -0.16,0 -0.13,-0.05 -0.26,-0.11 -0.39,-0.14 l -37.92,-9.55 -1.7,-15.84 c 3.35,-1.03 6.06,-3.47 7.52,-6.61 28.4,3.4 60.9,12.19 88.56,28.29 m -97.04,96.79 c 0,0 0.06,-0.03 0.09,-0.04 l 41.42,50.9 c -1.39,2.32 -2.23,5.01 -2.23,7.91 0,0.41 0.03,0.81 0.06,1.21 l -37.68,-0.4 -1.67,-59.58 z m 2.28,66.02 39.05,0.41 c 0,0 0.02,0.02 0.02,0.04 l -36.13,19.05 z m 13.24,21.34 30.34,-15.99 c 1.65,1.17 3.53,2.02 5.57,2.48 l -0.2,14.2 -35.7,-0.68 z m 7.58,6.57 29.87,0.57 46.09,11.46 c -0.07,0.49 -0.12,0.99 -0.12,1.5 0,0.64 0.07,1.27 0.18,1.88 l -45.49,27.41 c -0.82,-0.53 -1.72,-0.94 -2.68,-1.23 -1.45,-10.59 -5.4,-20.23 -11.51,-27.76 -5.17,-6.38 -10.94,-10.78 -16.34,-13.83 m 26.97,62.21 c 1.15,-0.24 2.25,-0.65 3.23,-1.23 l 32.82,27.69 c -8.39,1.58 -22.97,3.96 -31.64,3.26 -8.13,-0.66 -13.48,-4.64 -16.02,-7.04 3.06,-3.8 8.87,-12.05 11.61,-22.67 m 41.08,22.27 -33.55,-28.3 c 0.61,-1.34 0.95,-2.82 0.95,-4.39 0,-1.41 -0.28,-2.75 -0.77,-3.98 l 44.34,-26.71 c 0.65,0.65 1.4,1.2 2.2,1.66 l -13.16,61.72 z m 7.19,-2.89 12.26,-57.48 c 1.41,-0.13 2.74,-0.53 3.93,-1.16 l 20.13,25.82 -36.33,32.82 z m 39.23,-39.54 -18.49,-23.71 c 0.74,-1.45 1.16,-3.08 1.16,-4.82 0,-1.07 -0.16,-2.09 -0.45,-3.07 l 31.89,-22.48 -14.11,54.07 z m 2.06,-123.33 15.95,56.2 -20.26,-2.42 c -0.49,-4.22 -3.1,-7.78 -6.74,-9.6 l 11.04,-44.18 z m -17.51,67.53 c 0.32,0.02 0.64,0.04 0.96,0.04 5.07,0 9.43,-3.06 11.33,-7.44 l 16.29,1.94 -33.27,23.46 4.7,-18.01 z m -6.57,-22.08 c -1.82,1.4 -3.24,3.3 -4.06,5.5 -12.72,-1.39 -26.56,-2.5 -41.39,-3.35 0.05,-0.49 0.08,-0.99 0.08,-1.49 0,-4.64 -2.05,-8.79 -5.29,-11.62 l 23.99,-74.01 c 0.54,0.13 1.1,0.22 1.67,0.27 l 25.01,84.71 z m -57.57,-134.81 37.63,20.74 -4.97,8.18 c -1.07,0.08 -2.08,0.33 -3.04,0.71 l -29.63,-29.62 z m -15.21,24.67 1.15,-29.64 38.63,38.62 -33.01,-1.74 c -0.93,-3.39 -3.48,-6.11 -6.78,-7.25 m 15.09,125.9 c 4.33,-0.9 8.01,-3.58 10.19,-7.28 15.4,0.85 29.75,2 42.88,3.43 0.58,3.31 2.47,6.17 5.12,8.01 l -4.93,18.91 c -0.5,-0.07 -1,-0.13 -1.51,-0.13 -3,0 -5.71,1.25 -7.65,3.25 l -44.32,-11.02 z m -2.62,-30.5 -11.3,-75.75 c 2.48,-1.21 4.42,-3.34 5.37,-5.96 l 31.56,1.66 c 0.11,2.38 0.98,4.57 2.4,6.29 l -24.1,74.37 c -1.25,-0.37 -2.57,-0.57 -3.93,-0.61 m -17.67,-74.82 11.33,75.93 c -1.05,0.43 -2.02,1.01 -2.94,1.65 l -41.03,-50.42 c 0.83,-1.45 1.33,-3.11 1.33,-4.91 0,-1.14 -0.21,-2.22 -0.56,-3.24 l 27.49,-20.84 c 1.29,0.9 2.76,1.56 4.38,1.82 m -35.86,-33.88 1.08,-30.61 32.04,8.07 -33.11,22.54 z m 35.8,-16.59 -1.16,29.75 c -1.95,0.57 -3.68,1.66 -5,3.14 l -26.92,-10.38 33.08,-22.52 z m -8.87,39.98 c 0,1.26 0.23,2.46 0.64,3.59 l -27.55,20.88 c -0.53,-0.34 -1.08,-0.65 -1.67,-0.89 l 1.25,-35.34 27.41,10.56 c -0.05,0.4 -0.07,0.8 -0.07,1.21 m 107.18,43.35 -13.54,54.16 c -0.25,0.02 -0.5,0.07 -0.75,0.1 l -24.7,-83.67 c 0.49,-0.29 0.96,-0.61 1.4,-0.97 l 37.59,30.37 z m -34.32,-42.11 c -0.8,-2.27 -2.32,-4.19 -4.32,-5.47 l 3.86,-6.35 20.32,15.34 z m 28.69,11.62 4.31,21.16 -32.35,-26.13 z m 70.14,97.86 c -0.4,-9 -1.54,-20.39 -4.25,-33.4 -2.43,-11.7 -6.38,-25.64 -12.74,-40.74 4.31,-2.96 7.15,-7.92 7.15,-13.54 0,-9.06 -7.35,-16.41 -16.41,-16.41 -1.92,0 -3.75,0.36 -5.47,0.97 -8.79,-14.62 -20.01,-29.66 -34.4,-44.31 -4.39,-4.47 -9.24,-8.74 -14.47,-12.8 1.16,-1.88 1.84,-4.08 1.84,-6.45 0,-6.8 -5.51,-12.31 -12.31,-12.31 -4.13,0 -7.78,2.04 -10.01,5.16 -9.46,-5.38 -19.72,-10.16 -30.65,-14.22 -18.69,-6.94 -38.94,-11.69 -59.38,-14.06 -1.38,-5.29 -6.18,-9.2 -11.9,-9.2 -6.8,0 -12.31,5.51 -12.31,12.31 0,5.82 4.05,10.69 9.48,11.97 l 1.96,18.32 -1.42,40.28 c 0,0 -0.02,0.04 -0.03,0.06 -0.28,0.71 -0.26,1.46 -0.05,2.14 l -1.36,38.73 c -4.15,1.18 -7.19,4.99 -7.19,9.52 0,4.53 3.02,8.31 7.14,9.51 l 1.75,62.55 c 0,0.07 0.02,0.13 0.03,0.2 0,0.06 0,0.13 0,0.19 l 4.55,30.12 2.55,0.2 c 0.18,0.01 18.52,1.63 31.99,18.25 5.23,6.45 8.66,14.71 10.03,23.84 -4.2,1.43 -7.22,5.4 -7.22,10.08 0,4.33 2.59,8.05 6.3,9.72 -3.5,12.33 -11.62,21.11 -11.72,21.22 l -1.86,1.96 1.61,2.17 c 0.31,0.42 7.81,10.28 22.37,11.46 1.23,0.1 2.55,0.15 3.94,0.15 13.99,0 34.95,-4.59 36.06,-4.83 0,0 0,0 0,0 0,0 0.01,0 0.01,0 l 0.83,-0.18 47.1,-42.55 17.91,-68.67 0.74,-0.52 c 6.96,1.77 12.89,3.43 17.75,4.88 -1.17,2.58 -1.84,5.44 -1.84,8.45 0,11.33 9.18,20.51 20.51,20.51 11.33,0 20.51,-9.18 20.51,-20.51 0,-10.19 -7.43,-18.62 -17.17,-20.22"
         id="path73"
         style="fill:#f7941d" />
    </g>
  </g>
</svg>
