<?xml version="1.0" encoding="UTF-8" standalone="no"?>
<!-- Created with Inkscape (http://www.inkscape.org/) -->

<svg
   width="400mm"
   height="142mm"
   viewBox="0 0 400 142"
   version="1.1"
   id="svg1"
   inkscape:version="1.4 (e7c3feb1, 2024-10-09)"
   sodipodi:docname="eegdash_left_right.svg"
   xmlns:inkscape="http://www.inkscape.org/namespaces/inkscape"
   xmlns:sodipodi="http://sodipodi.sourceforge.net/DTD/sodipodi-0.dtd"
   xmlns="http://www.w3.org/2000/svg"
   xmlns:svg="http://www.w3.org/2000/svg">
  <sodipodi:namedview
     id="namedview1"
     pagecolor="#ffffff"
     bordercolor="#000000"
     borderopacity="0.25"
     inkscape:showpageshadow="2"
     inkscape:pageopacity="0.0"
     inkscape:pagecheckerboard="0"
     inkscape:deskcolor="#d1d1d1"
     inkscape:document-units="mm"
     inkscape:zoom="0.51596265"
     inkscape:cx="747.1471"
     inkscape:cy="310.09997"
     inkscape:window-width="1512"
     inkscape:window-height="829"
     inkscape:window-x="0"
     inkscape:window-y="38"
     inkscape:window-maximized="0"
     inkscape:current-layer="g343" />
  <defs
     id="defs1">
    <clipPath
       id="clippath-8">
      <rect
         class="st11"
         x="-550.21997"
         y="215.38"
         width="465.17001"
         height="164.53"
         id="rect9" />
    </clipPath>
    <clipPath
       id="clippath-8-3">
      <rect
         class="st11"
         x="-550.21997"
         y="215.38"
         width="465.17001"
         height="164.53"
         id="rect9-0" />
    </clipPath>
  </defs>
  <g
     inkscape:label="Layer 1"
     inkscape:groupmode="layer"
     id="layer1">
    <g
       class="st15"
       clip-path="url(#clippath-8-3)"
       id="g343"
       transform="matrix(0.85993771,0,0,0.85993771,473.1549,-185.22198)">
      <g
         id="g3"
         transform="translate(-246.68997)">
        <path
           class="st22"
           d="m -196.06,223.25 -0.19,-4.07 c -12.88,0.61 -25.91,3.25 -37.68,7.62 -4.72,1.75 -9.2,3.78 -13.37,6.04 -1.08,-0.99 -2.51,-1.6 -4.08,-1.6 -3.34,0 -6.05,2.71 -6.05,6.05 0,0.61 0.09,1.2 0.26,1.76 -3.3,2.4 -6.31,4.98 -8.98,7.7 -6.95,7.08 -12.41,14.35 -16.69,21.42 -3.77,0.67 -6.64,3.96 -6.64,7.93 0,1.16 0.25,2.27 0.7,3.27 -4.02,8.72 -6.37,16.79 -7.75,23.4 -1.46,7.05 -2,13.12 -2.13,17.73 -2.91,1.77 -4.87,4.96 -4.87,8.61 0,5.56 4.51,10.07 10.08,10.07 5.57,0 10.07,-4.51 10.07,-10.07 0,-1.37 -0.28,-2.68 -0.77,-3.88 1.64,-0.45 3.51,-0.94 5.58,-1.46 -0.25,2.47 -0.1,5.52 0.41,8.45 0.66,3.82 3.76,7 6.59,9.17 -0.97,3.24 -1.54,7.17 0.17,9.78 3.37,5.11 4.3,4.36 4.3,4.36 0,0 -2.43,6.06 0.94,9.09 3.37,3.03 7.48,3.22 7.48,3.22 0,0 2.62,8.71 8.98,8.52 6.36,-0.19 9.92,-1.89 9.92,-1.89 0,0 4.3,3.03 10.66,3.22 7.58,1.94 15.31,-2.9 17.93,-4.79 -4.53,-4.4 -7.35,-10.56 -7.35,-17.37 0,-10.87 7.16,-20.05 17.02,-23.13 l -0.27,-0.54 -0.07,-0.16 -3.71,-9.62 -0.11,-0.43 -3.34,-22.33 -0.04,0.04 -1.75,9.06 c -0.14,0.71 -0.61,1.2 -1.14,1.2 h -0.95 l -1.6,8.31 -1.85,14.91 c -0.05,0.63 -0.38,1.17 -0.83,1.35 -0.11,0.05 -0.23,0.07 -0.34,0.07 -0.34,0 -0.67,-0.2 -0.89,-0.56 l -0.73,-1.16 -1.05,2.72 -0.07,0.16 -1.86,3.7 c -0.22,0.44 -0.58,0.7 -0.97,0.7 -0.03,0 -0.06,0 -0.09,0 -0.42,-0.04 -0.79,-0.38 -0.97,-0.9 l -1.61,-4.48 -2.86,-0.86 -1.57,0.62 c -0.11,0.04 -0.22,0.06 -0.33,0.06 -0.31,0 -0.62,-0.17 -0.84,-0.48 l -0.52,-0.73 -1.24,4.93 c -0.16,0.65 -0.61,1.09 -1.11,1.09 0,0 0,0 0,0 -0.51,0 -0.95,-0.45 -1.11,-1.11 l -3.67,-11.56 -1.78,-1.63 -0.12,-0.33 -1.85,-7.4 -0.03,-0.13 -0.67,-3.62 -2.61,15.06 -0.03,0.13 -1.86,7.77 -0.1,0.3 -1.81,4.33 -1.82,6.54 -0.21,0.48 -1.86,2.96 c -0.23,0.36 -0.55,0.56 -0.89,0.56 -0.03,0 -0.06,0 -0.09,0 -0.37,-0.04 -0.71,-0.32 -0.91,-0.76 l -1.86,-4.07 -0.08,-0.22 -1.86,-5.92 -0.07,-0.29 -1.7,-10.53 -1.19,-0.47 c -0.19,-0.08 -0.37,-0.22 -0.51,-0.42 l -1.86,-2.59 c -0.14,-0.19 -0.24,-0.44 -0.3,-0.7 l -1.81,-9.02 -1.67,-3.67 -1.32,-1.57 -1.32,0.26 h -0.34 l -2.59,3.1 c 0,0 0.04,0.08 0.06,0.12 -1.6,1.5 -2.59,3.06 -3.14,4.62 -0.1,0.12 -0.19,0.25 -0.28,0.4 -3.45,0.84 -6.43,1.63 -8.85,2.3 -1.83,-1.84 -4.35,-2.98 -7.15,-2.98 -0.36,0 -0.72,0.02 -1.07,0.06 0.2,-4.2 0.73,-9.49 1.98,-15.49 1.23,-5.92 3.28,-13.05 6.67,-20.78 1.27,0.85 2.8,1.34 4.45,1.34 4.45,0 8.06,-3.61 8.06,-8.06 0,-0.34 -0.03,-0.67 -0.07,-0.99 2.4,-0.7 5.23,-1.49 8.43,-2.32 -0.19,1.41 -0.28,2.89 -0.25,4.46 0,0 -10.12,6.6 -11.37,16.35 -0.89,6.97 -0.68,14.42 0.97,17.13 0.09,0.34 0.19,0.69 0.3,1.03 l 0.05,-0.06 c 0.22,-0.26 0.49,-0.4 0.77,-0.4 0.06,0 0.11,0 0.17,0.02 l 3.01,-3.09 1.69,-0.34 c 0.06,-0.01 0.11,-0.02 0.17,-0.02 0.28,0 0.56,0.14 0.77,0.4 l 1.86,2.22 0.22,0.36 1.86,4.07 0.14,0.43 1.77,8.84 1.43,1.99 1.56,0.62 c 0.41,0.16 0.73,0.63 0.82,1.2 l 1.83,11.32 1.77,5.67 0.96,2.1 0.68,-1.08 1.78,-6.4 0.08,-0.23 1.8,-4.3 1.8,-7.55 3.7,-21.39 c 0.12,-0.72 0.6,-1.24 1.14,-1.24 h 0.01 c 0.54,0 1.01,0.5 1.14,1.22 l 1.84,9.92 1.8,7.16 1.78,1.64 0.12,0.35 2.62,7.18 0.71,-2.85 c 0.13,-0.53 0.45,-0.93 0.85,-1.05 0.09,-0.03 0.17,-0.04 0.26,-0.04 0.31,0 0.61,0.17 0.84,0.48 l 1.36,1.9 1.18,-0.47 c 0.11,-0.04 0.22,-0.06 0.33,-0.06 0.08,0 0.17,0.01 0.25,0.04 l 3.71,1.11 c 0.35,0.1 0.65,0.43 0.81,0.87 l 0.97,2.7 0.68,-1.35 1.82,-4.73 c 0.18,-0.47 0.52,-0.79 0.91,-0.85 0.04,0 0.09,-0.01 0.13,-0.01 0.34,0 0.67,0.2 0.89,0.56 l 0.11,0.18 1.54,-11.39 0.03,-0.22 1.86,-9.62 c 0.14,-0.71 0.61,-1.2 1.14,-1.2 h 0.95 l 1.62,-8.42 c 0.07,-0.36 0.23,-0.67 0.45,-0.89 l 1.86,-1.85 c 0.21,-0.21 0.45,-0.31 0.69,-0.31 0.14,0 0.29,0.04 0.43,0.11 0.38,0.2 0.65,0.64 0.73,1.18 l 3.68,24.56 3.6,9.33 0.29,0.58 c 0.85,-1.53 1.57,-3.41 1.64,-5.46 0.11,-3.25 0.15,-6.35 -0.99,-9.01 1.52,-6.93 -0.78,-25.42 -0.2,-38.03 l -2.03,-0.19 c -0.42,-0.04 -0.79,-0.34 -1,-0.81 l -1.92,-4.31 -1.9,-2.84 c -0.12,-0.18 -0.21,-0.4 -0.26,-0.63 l -1.89,-8.84 -0.68,-0.89 -1.07,2.01 -1.94,4.73 c -0.22,0.54 -0.66,0.86 -1.11,0.86 -0.17,0 -0.34,-0.04 -0.5,-0.13 l -0.52,-0.29 -1.7,12.4 c -0.08,0.55 -0.37,1.01 -0.77,1.22 -0.15,0.08 -0.31,0.12 -0.47,0.12 -0.26,0 -0.52,-0.11 -0.74,-0.31 l -1.98,-1.85 -0.33,-0.45 -0.74,-1.53 -1.01,2.82 c -0.18,0.51 -0.56,0.87 -1,0.93 -0.05,0 -0.09,0.01 -0.14,0.01 -0.39,0 -0.76,-0.23 -1,-0.64 l -1.46,-2.45 -1.15,0.43 -0.35,0.07 h -1.1 l -1.68,5.96 c -0.16,0.56 -0.54,0.96 -1,1.05 l -1.18,0.22 -1.75,7.52 c -0.08,0.34 -0.24,0.64 -0.47,0.84 l -1.98,1.85 c -0.22,0.2 -0.48,0.31 -0.74,0.31 -0.14,0 -0.28,-0.03 -0.41,-0.09 -0.39,-0.17 -0.69,-0.59 -0.8,-1.1 l -1.91,-8.94 -0.83,-1.4 -0.98,1.65 c -0.24,0.41 -0.61,0.63 -1,0.63 -0.1,0 -0.2,-0.01 -0.3,-0.05 -0.49,-0.15 -0.85,-0.66 -0.94,-1.3 l -1.6,-11.96 -0.17,0.2 -1.89,3.53 c -0.2,0.37 -0.51,0.62 -0.85,0.68 l -1.98,0.37 c -0.06,0.01 -0.12,0.02 -0.18,0.02 -0.3,0 -0.59,-0.14 -0.82,-0.4 l -1.83,-2.06 -0.81,-0.45 -1.4,2.89 c -0.22,0.45 -0.6,0.73 -1.01,0.76 -0.02,0 -0.04,0 -0.06,0 -0.39,0 -0.76,-0.24 -1,-0.64 l -3.96,-6.66 -0.17,-0.38 -1.53,-4.87 c -0.41,0.93 -0.76,1.91 -1.07,2.94 -4.12,1.03 -7.67,2.01 -10.58,2.87 -0.88,-1.33 -2.15,-2.37 -3.64,-2.99 3.98,-6.31 8.92,-12.75 15.11,-19.05 2.61,-2.66 5.46,-5.08 8.5,-7.29 0.96,0.64 2.12,1.02 3.36,1.02 0.28,0 0.56,-0.03 0.83,-0.06 0.66,3.07 1.35,6.35 2.04,9.83 -3.07,0.32 -7.57,1.85 -11.48,7.36 -0.5,0.71 -0.99,1.45 -1.45,2.23 l 0.26,0.52 1.92,6.09 2.75,4.63 1.02,-2.09 c 0.23,-0.48 0.64,-0.76 1.07,-0.76 0.17,0 0.34,0.04 0.5,0.13 l 1.98,1.11 0.32,0.26 1.54,1.73 0.86,-0.16 1.67,-3.12 0.21,-0.3 1.98,-2.22 c 0.23,-0.26 0.53,-0.4 0.83,-0.4 0.14,0 0.28,0.03 0.42,0.09 0.43,0.19 0.74,0.67 0.82,1.25 l 1.49,11.15 0.23,-0.39 c 0.24,-0.4 0.61,-0.64 1,-0.64 0.39,0 0.76,0.24 1,0.64 l 1.98,3.33 0.21,0.55 1.5,7 0.17,-0.16 1.86,-7.99 c 0.14,-0.6 0.54,-1.05 1.02,-1.14 l 1.23,-0.23 1.72,-6.12 c 0.18,-0.64 0.65,-1.07 1.18,-1.07 h 1.8 l 1.81,-0.68 c 0.12,-0.04 0.23,-0.06 0.35,-0.06 0.39,0 0.75,0.23 1,0.64 l 0.71,1.19 1.11,-3.11 c 0.19,-0.54 0.6,-0.9 1.06,-0.94 0.03,0 0.05,0 0.08,0 0.43,0 0.83,0.29 1.07,0.76 l 1.85,3.8 0.15,0.15 1.63,-11.88 c 0.07,-0.49 0.3,-0.91 0.64,-1.14 0.18,-0.13 0.39,-0.19 0.59,-0.19 0.17,0 0.34,0.05 0.5,0.14 l 0.91,0.51 1.43,-3.48 0.08,-0.16 1.98,-3.7 c 0.21,-0.4 0.55,-0.65 0.92,-0.69 0.04,0 0.08,0 0.11,0 0.34,0 0.66,0.17 0.89,0.48 l 1.98,2.59 c 0.15,0.19 0.26,0.44 0.32,0.71 l 1.9,8.9 1.79,2.68 0.14,0.25 1.65,3.69 1.34,0.12 c 0.69,-14.8 1.06,-36.94 -1.24,-39.21 -2.14,-2.11 -6.04,-3.49 -10.07,-1.4 -4.03,2.1 -6.94,5.94 -6.94,5.94 0,0 -6.91,-5.5 -18.32,0.09 -5.71,2.8 -8.79,11.21 -9.28,12.66 -0.82,-4.08 -1.61,-7.9 -2.38,-11.44 1.12,-1.1 1.81,-2.62 1.81,-4.31 0,-0.28 -0.03,-0.56 -0.06,-0.83 15.88,-8.57 34.53,-12.5 49.35,-13.21"
           id="path342"
           style="fill:#006ca3" />
        <path
           class="st9"
           d="m -194.2,340.19 c -3.32,0 -6.4,1.01 -8.95,2.75 -4.22,2.87 -6.99,7.71 -6.99,13.19 0,6.65 4.07,12.34 9.85,14.74 0.77,-2.11 1.79,-4.91 3.15,-8.62 0.18,-0.51 -0.06,-1.12 -0.54,-1.36 -1.03,-0.52 -2.33,-2.48 -2.33,-4.76 0,-3.21 2.6,-5.81 5.81,-5.81 3.21,0 5.81,2.6 5.81,5.81 0,2.27 -1.31,4.24 -2.33,4.76 -0.48,0.24 -0.72,0.85 -0.54,1.36 1.36,3.71 2.38,6.51 3.15,8.62 5.78,-2.39 9.85,-8.09 9.85,-14.74 0,-8.81 -7.14,-15.94 -15.94,-15.94 m 94.6,-36.77 c 1.3,6.19 1.84,11.63 2.03,15.92 -1.9,0.48 -3.58,1.48 -4.88,2.86 -2.54,-0.77 -5.76,-1.68 -9.63,-2.67 l -9.77,-34.43 -2.7,-13.27 c 4.03,1.05 7.46,2.07 10.24,2.95 -0.07,0.43 -0.11,0.86 -0.11,1.31 0,4.45 3.61,8.06 8.06,8.06 0.24,0 0.47,-0.02 0.71,-0.04 3.03,7.15 4.91,13.76 6.07,19.3 m -12.86,-32.6 c -0.28,0.32 -0.54,0.65 -0.77,1.01 -3.24,-1.03 -7.36,-2.24 -12.29,-3.49 -0.01,-0.01 -0.02,-0.03 -0.03,-0.04 -0.04,-0.05 -0.09,-0.09 -0.14,-0.13 -0.02,-0.02 -0.04,-0.04 -0.06,-0.05 l -15.03,-11.34 c 0.67,-3.42 1.22,-6.54 1.71,-9.3 0.26,-1.48 0.5,-2.86 0.74,-4.14 0.03,0 0.07,0 0.1,0 0.64,0 1.26,-0.1 1.84,-0.29 2.66,2.01 5.18,4.19 7.51,6.55 6.89,7.02 12.25,14.22 16.43,21.21 m -31.79,-32.95 c 0.18,1.95 1.28,3.62 2.86,4.6 -0.26,1.38 -0.52,2.87 -0.8,4.47 -0.43,2.43 -0.91,5.14 -1.47,8.08 l -27.35,-15.07 c 0,0 -0.02,0 -0.03,-0.01 -0.2,-0.1 -0.43,-0.17 -0.67,-0.18 -0.03,0 -0.05,0 -0.08,0 -0.06,-0.02 -0.12,-0.05 -0.19,-0.07 l -18.63,-4.69 -0.83,-7.78 c 1.65,-0.51 2.98,-1.7 3.69,-3.24 13.95,1.67 29.92,5.99 43.5,13.9 m -47.67,47.53 c 0,0 0.03,-0.01 0.04,-0.02 l 20.35,25.01 c -0.68,1.14 -1.09,2.46 -1.09,3.89 0,0.2 0.02,0.4 0.03,0.6 l -18.51,-0.2 -0.82,-29.27 z m 1.12,32.43 19.18,0.2 c 0,0 0,0.01 0.01,0.02 l -17.75,9.36 -1.45,-9.58 z m 6.5,10.48 14.9,-7.86 c 0.81,0.57 1.73,0.99 2.73,1.22 l -0.1,6.97 -17.54,-0.33 z m 3.73,3.23 14.67,0.28 22.64,5.63 c -0.03,0.24 -0.06,0.49 -0.06,0.74 0,0.32 0.03,0.62 0.09,0.92 l -22.35,13.46 c -0.4,-0.26 -0.85,-0.46 -1.32,-0.6 -0.71,-5.2 -2.65,-9.94 -5.65,-13.64 -2.54,-3.13 -5.37,-5.29 -8.03,-6.79 m 13.26,30.55 c 0.57,-0.12 1.1,-0.32 1.59,-0.61 l 16.12,13.6 c -4.12,0.78 -11.28,1.95 -15.54,1.6 -3.99,-0.33 -6.62,-2.28 -7.87,-3.46 1.5,-1.87 4.36,-5.92 5.7,-11.14 m 20.18,10.96 -16.48,-13.9 c 0.3,-0.66 0.47,-1.38 0.47,-2.15 0,-0.69 -0.14,-1.35 -0.38,-1.95 l 21.78,-13.12 c 0.32,0.32 0.69,0.59 1.08,0.82 l -6.47,30.31 z m 3.53,-1.42 6.02,-28.24 c 0.69,-0.07 1.34,-0.26 1.93,-0.57 l 9.89,12.68 -17.84,16.12 z m 19.27,-19.42 -9.08,-11.65 c 0.36,-0.71 0.57,-1.51 0.57,-2.37 0,-0.52 -0.08,-1.03 -0.22,-1.51 l 15.66,-11.04 -6.93,26.56 z m 1.01,-60.59 7.84,27.6 -9.95,-1.19 c -0.24,-2.07 -1.52,-3.82 -3.31,-4.72 l 5.43,-21.7 z m -8.6,33.18 c 0.15,0.01 0.31,0.02 0.47,0.02 2.49,0 4.63,-1.5 5.57,-3.65 l 8,0.95 -16.34,11.52 2.31,-8.85 z m -3.23,-10.85 c -0.89,0.69 -1.59,1.62 -1.99,2.7 -6.25,-0.68 -13.05,-1.23 -20.33,-1.64 0.02,-0.24 0.04,-0.49 0.04,-0.74 0,-2.28 -1.01,-4.32 -2.6,-5.71 l 11.78,-36.36 c 0.26,0.07 0.54,0.11 0.82,0.13 l 12.29,41.61 z m -28.28,-66.22 18.49,10.19 -2.44,4.02 c -0.52,0.04 -1.02,0.17 -1.49,0.35 l -14.55,-14.55 z m -7.47,12.12 0.57,-14.56 18.98,18.97 -16.22,-0.86 c -0.46,-1.67 -1.71,-3 -3.33,-3.56 m 7.41,61.85 c 2.13,-0.44 3.93,-1.76 5,-3.57 7.57,0.42 14.61,0.98 21.06,1.68 0.28,1.63 1.21,3.03 2.52,3.94 l -2.42,9.29 c -0.24,-0.03 -0.49,-0.06 -0.74,-0.06 -1.47,0 -2.81,0.61 -3.76,1.6 l -21.77,-5.41 0.11,-7.45 z m -1.29,-14.98 -5.55,-37.21 c 1.22,-0.59 2.17,-1.64 2.64,-2.93 l 15.5,0.82 c 0.05,1.17 0.48,2.25 1.18,3.09 l -11.84,36.53 c -0.61,-0.18 -1.26,-0.28 -1.93,-0.3 m -8.68,-36.76 5.57,37.3 c -0.52,0.21 -0.99,0.5 -1.45,0.81 l -20.15,-24.77 c 0.41,-0.71 0.65,-1.53 0.65,-2.41 0,-0.56 -0.1,-1.09 -0.28,-1.59 l 13.51,-10.24 c 0.63,0.44 1.36,0.77 2.15,0.89 m -17.61,-16.63 0.53,-15.04 15.74,3.96 -16.27,11.07 z m 17.58,-8.15 -0.57,14.61 c -0.96,0.28 -1.81,0.82 -2.46,1.54 l -13.22,-5.1 16.25,-11.06 z m -4.36,19.63 c 0,0.62 0.11,1.21 0.31,1.76 l -13.53,10.25 c -0.26,-0.17 -0.53,-0.32 -0.82,-0.44 l 0.61,-17.36 13.46,5.19 c -0.02,0.19 -0.04,0.39 -0.04,0.59 m 52.67,21.32 -6.65,26.6 c -0.12,0 -0.24,0.04 -0.37,0.05 l -12.13,-41.1 c 0.24,-0.14 0.47,-0.3 0.69,-0.47 z m -16.86,-20.69 c -0.39,-1.11 -1.14,-2.06 -2.12,-2.68 l 1.9,-3.12 9.98,7.53 z m 14.09,5.71 2.12,10.39 -15.89,-12.84 13.77,2.44 z m 34.45,48.07 c -0.2,-4.42 -0.76,-10.02 -2.09,-16.41 -1.2,-5.75 -3.13,-12.6 -6.26,-20.01 2.12,-1.45 3.51,-3.89 3.51,-6.65 0,-4.45 -3.61,-8.06 -8.06,-8.06 -0.94,0 -1.84,0.18 -2.68,0.48 -4.32,-7.18 -9.83,-14.57 -16.9,-21.77 -2.16,-2.2 -4.54,-4.29 -7.11,-6.29 0.57,-0.92 0.9,-2 0.9,-3.17 0,-3.34 -2.71,-6.04 -6.04,-6.04 -2.03,0 -3.82,1 -4.92,2.54 -4.65,-2.64 -9.69,-4.99 -15.05,-6.98 -9.18,-3.41 -19.13,-5.74 -29.17,-6.9 -0.68,-2.6 -3.03,-4.52 -5.84,-4.52 -3.34,0 -6.04,2.71 -6.04,6.04 0,2.86 1.99,5.25 4.66,5.88 l 0.96,9 -0.7,19.79 c 0,0 -0.01,0.02 -0.01,0.03 -0.14,0.35 -0.13,0.72 -0.02,1.05 l -0.67,19.03 c -2.04,0.58 -3.53,2.45 -3.53,4.68 0,2.23 1.48,4.08 3.51,4.67 l 0.86,30.72 c 0,0 0,0.06 0.01,0.1 0,0.03 0,0.06 0,0.1 l 2.23,14.79 1.25,0.1 c 0.09,0 9.1,0.8 15.71,8.97 2.57,3.17 4.26,7.23 4.93,11.71 -2.06,0.7 -3.55,2.65 -3.55,4.95 0,2.13 1.27,3.96 3.1,4.77 -1.72,6.06 -5.71,10.37 -5.76,10.42 l -0.92,0.96 0.79,1.06 c 0.15,0.21 3.83,5.05 10.99,5.63 0.6,0.05 1.25,0.07 1.94,0.07 6.87,0 17.17,-2.25 17.71,-2.38 v 0 c 0,0 0,0 0,0 l 0.41,-0.09 23.14,-20.9 8.8,-33.73 0.36,-0.26 c 3.42,0.87 6.33,1.69 8.72,2.4 -0.57,1.27 -0.9,2.67 -0.9,4.15 0,5.57 4.51,10.08 10.07,10.08 5.56,0 10.08,-4.51 10.08,-10.08 0,-5 -3.65,-9.14 -8.43,-9.93"
           id="path343"
           style="fill:#f7941d" />
      </g>
      <g
         id="g2"
         transform="translate(232.58502,6.4624564e-5)">
        <path
           class="st9"
           d="m -550.22,369.38 c 3.48,0.46 8.61,0.92 15.85,0.92 12.09,0 21.99,-2.57 28.49,-7.97 5.95,-5.04 10.26,-13.19 10.26,-25.01 0,-10.9 -4.03,-18.51 -10.44,-23.27 -5.95,-4.49 -13.56,-6.6 -25.28,-6.6 -7.05,0 -13.74,0.46 -18.87,1.28 v 60.65 z m 14.01,-50.66 c 1.19,-0.28 3.21,-0.55 6.32,-0.55 12,0 19.51,6.78 19.42,19.6 0,14.75 -8.25,21.71 -20.89,21.62 -1.74,0 -3.66,0 -4.86,-0.27 v -40.4 z m 80.35,35.09 4.76,15.85 h 15.02 l -19.15,-61.74 h -18.32 l -18.87,61.74 h 14.47 l 4.4,-15.85 h 17.68 z m -15.67,-10.45 3.66,-13.1 c 1.01,-3.57 1.92,-8.24 2.84,-11.91 h 0.18 c 0.92,3.66 2.02,8.24 3.12,11.91 l 3.85,13.1 z m 41.32,23.46 c 3.48,1.92 10.44,3.76 17.5,3.76 16.95,0 24.92,-8.79 24.92,-19.15 0,-8.7 -5.13,-14.38 -16.03,-18.41 -7.97,-3.02 -11.45,-4.76 -11.45,-8.7 0,-3.21 2.93,-5.96 8.98,-5.96 6.05,0 10.44,1.74 12.92,2.93 l 3.11,-11.27 c -3.66,-1.65 -8.79,-3.11 -15.76,-3.11 -14.57,0 -23.36,8.06 -23.36,18.6 0,8.98 6.69,14.66 16.95,18.23 7.42,2.66 10.35,4.85 10.35,8.7 0,3.85 -3.39,6.69 -9.8,6.69 -5.96,0 -11.73,-1.92 -15.48,-3.85 l -2.84,11.54 z m 51.85,-58.91 v 61.74 h 14.02 v -25.83 h 23 v 25.83 h 13.92 v -61.74 h -13.92 v 23.73 h -23 v -23.73 z"
           id="path340"
           style="fill:#f7941d" />
        <path
           class="st22"
           d="m -513.49,257.3 h -22.72 v -12.83 h 24.09 v -11.45 h -38.11 v 61.74 h 39.39 v -11.45 h -25.38 v -14.66 h 22.72 v -11.36 z m 48.92,0 h -22.72 v -12.83 h 24.09 v -11.45 h -38.11 v 61.74 h 39.39 v -11.45 h -25.38 v -14.66 h 22.72 v -11.36 z m 63.76,2.11 h -22.99 v 10.9 h 9.53 v 12.92 c -1.1,0.55 -3.66,0.92 -6.87,0.92 -11.45,0 -19.42,-7.51 -19.42,-20.25 0,-13.37 8.79,-19.97 20.43,-19.97 6.78,0 10.99,1.19 14.38,2.66 l 2.93,-11.18 c -3.02,-1.46 -9.16,-3.02 -17.13,-3.02 -20.25,0 -35.18,11.73 -35.27,32.25 -0.09,9.07 3.02,17.13 8.7,22.44 5.68,5.5 13.83,8.34 25.1,8.34 8.15,0 16.31,-2.02 20.61,-3.48 v -32.52 z"
           id="path341"
           style="fill:#006ca3" />
        <path
           class="st9"
           d="m -550.22,369.38 c 3.48,0.46 8.61,0.92 15.85,0.92 12.09,0 21.99,-2.57 28.49,-7.97 5.95,-5.04 10.26,-13.19 10.26,-25.01 0,-10.9 -4.03,-18.51 -10.44,-23.27 -5.95,-4.49 -13.56,-6.6 -25.28,-6.6 -7.05,0 -13.74,0.46 -18.87,1.28 v 60.65 z m 14.01,-50.66 c 1.19,-0.28 3.21,-0.55 6.32,-0.55 12,0 19.51,6.78 19.42,19.6 0,14.75 -8.25,21.71 -20.89,21.62 -1.74,0 -3.66,0 -4.86,-0.27 v -40.4 z m 80.35,35.09 4.76,15.85 h 15.02 l -19.15,-61.74 h -18.32 l -18.87,61.74 h 14.47 l 4.4,-15.85 h 17.68 z m -15.67,-10.45 3.66,-13.1 c 1.01,-3.57 1.92,-8.24 2.84,-11.91 h 0.18 c 0.92,3.66 2.02,8.24 3.12,11.91 l 3.85,13.1 z m 41.32,23.46 c 3.48,1.92 10.44,3.76 17.5,3.76 16.95,0 24.92,-8.79 24.92,-19.15 0,-8.7 -5.13,-14.38 -16.03,-18.41 -7.97,-3.02 -11.45,-4.76 -11.45,-8.7 0,-3.21 2.93,-5.96 8.98,-5.96 6.05,0 10.44,1.74 12.92,2.93 l 3.11,-11.27 c -3.66,-1.65 -8.79,-3.11 -15.76,-3.11 -14.57,0 -23.36,8.06 -23.36,18.6 0,8.98 6.69,14.66 16.95,18.23 7.42,2.66 10.35,4.85 10.35,8.7 0,3.85 -3.39,6.69 -9.8,6.69 -5.96,0 -11.73,-1.92 -15.48,-3.85 l -2.84,11.54 z m 51.85,-58.91 v 61.74 h 14.02 v -25.83 h 23 v 25.83 h 13.92 v -61.74 h -13.92 v 23.73 h -23 v -23.73 z"
           id="path1"
           style="fill:#f7941d" />
        <path
           class="st22"
           d="m -513.49,257.3 h -22.72 v -12.83 h 24.09 v -11.45 h -38.11 v 61.74 h 39.39 v -11.45 h -25.38 v -14.66 h 22.72 v -11.36 z m 48.92,0 h -22.72 v -12.83 h 24.09 v -11.45 h -38.11 v 61.74 h 39.39 v -11.45 h -25.38 v -14.66 h 22.72 v -11.36 z m 63.76,2.11 h -22.99 v 10.9 h 9.53 v 12.92 c -1.1,0.55 -3.66,0.92 -6.87,0.92 -11.45,0 -19.42,-7.51 -19.42,-20.25 0,-13.37 8.79,-19.97 20.43,-19.97 6.78,0 10.99,1.19 14.38,2.66 l 2.93,-11.18 c -3.02,-1.46 -9.16,-3.02 -17.13,-3.02 -20.25,0 -35.18,11.73 -35.27,32.25 -0.09,9.07 3.02,17.13 8.7,22.44 5.68,5.5 13.83,8.34 25.1,8.34 8.15,0 16.31,-2.02 20.61,-3.48 v -32.52 z"
           id="path2"
           style="fill:#006ca3" />
      </g>
    </g>
  </g>
</svg>
