<?xml version="1.0" encoding="UTF-8" standalone="no"?>
<!-- Created with Inkscape (http://www.inkscape.org/) -->

<svg
   width="200mm"
   height="150mm"
   viewBox="0 0 200 150"
   version="1.1"
   id="svg1"
   inkscape:version="1.4 (e7c3feb1, 2024-10-09)"
   sodipodi:docname="eegdash_image_only.svg"
   xmlns:inkscape="http://www.inkscape.org/namespaces/inkscape"
   xmlns:sodipodi="http://sodipodi.sourceforge.net/DTD/sodipodi-0.dtd"
   xmlns="http://www.w3.org/2000/svg"
   xmlns:svg="http://www.w3.org/2000/svg">
  <sodipodi:namedview
     id="namedview1"
     pagecolor="#ffffff"
     bordercolor="#000000"
     borderopacity="0.25"
     inkscape:showpageshadow="2"
     inkscape:pageopacity="0.0"
     inkscape:pagecheckerboard="0"
     inkscape:deskcolor="#d1d1d1"
     inkscape:document-units="mm"
     inkscape:zoom="0.6592312"
     inkscape:cx="281.38838"
     inkscape:cy="370.12811"
     inkscape:window-width="1512"
     inkscape:window-height="829"
     inkscape:window-x="0"
     inkscape:window-y="38"
     inkscape:window-maximized="0"
     inkscape:current-layer="layer1"
     showguides="true">
    <sodipodi:guide
       position="48.162162,49.894594"
       orientation="0,-1"
       id="guide1"
       inkscape:locked="false" />
  </sodipodi:namedview>
  <defs
     id="defs1" />
  <g
     inkscape:label="Layer 1"
     inkscape:groupmode="layer"
     id="layer1">
    <path
       class="st22"
       d="M 98.022965,7.187299 97.848338,3.475054 c -11.73679,0.559747 -23.61687,2.959945 -34.35059,6.945345 -4.30781,1.598644 -8.38277,3.448044 -12.189056,5.512394 -0.980677,-0.90007 -2.288248,-1.45534 -3.725679,-1.45534 -3.045027,0 -5.512393,2.46736 -5.512393,5.51239 0,0.55975 0.08508,1.09711 0.237332,1.60312 -3.009202,2.18973 -5.754204,4.53618 -8.190224,7.017 -6.336342,6.45724 -11.306899,13.08018 -15.216176,19.52847 -3.443565,0.609 -6.058706,3.60925 -6.058706,7.22745 0,1.06128 0.228376,2.06882 0.635873,2.97786 -3.6629867,7.9484 -5.812417,15.30125 -7.061774,21.32861 -1.334438,6.4259 -1.818059,11.96068 -1.943442,16.16104 -2.655444,1.61207 -4.437679,4.518267 -4.437679,7.849887 0,5.07355 4.110786,9.18434 9.1843373,9.18434 5.0735497,0 9.1843357,-4.11079 9.1843357,-9.18434 0,-1.25383 -0.250768,-2.44497 -0.707522,-3.53312 1.495647,-0.407497 3.206235,-0.855307 5.086986,-1.329957 -0.228378,2.256897 -0.08508,5.028767 0.37615,7.706597 0.604527,3.48386 3.430132,6.38112 6.009449,8.36039 -0.88664,2.9465 -1.406085,6.54233 0.156722,8.92014 3.067416,4.66157 3.92271,3.97196 3.92271,3.97196 0,0 -2.216599,5.52583 0.850817,8.28874 3.067415,2.76292 6.819963,2.93308 6.819963,2.93308 0,0 2.386763,7.94394 8.185747,7.76929 5.798979,-0.17464 9.041039,-1.7285 9.041039,-1.7285 0,0 3.92271,2.76292 9.7217,2.93308 6.914,1.7688 13.95786,-2.64649 16.3491,-4.36155 -4.1287,-4.01676 -6.69458,-9.62765 -6.69458,-15.83863 0,-9.90975 6.52889,-18.27462 15.51172,-21.08232 l -0.24629,-0.49257 -0.0626,-0.14776 -3.38535,-8.767877 -0.10299,-0.39407 -3.0495,-20.35242 -0.0358,0.0359 -1.59416,8.26187 c -0.12538,0.64483 -0.5508,1.09711 -1.0389,1.09711 h -0.86425 l -1.45982,7.57226 -1.68372,13.595137 c -0.0492,0.57766 -0.34928,1.06576 -0.7523,1.23146 -0.10298,0.0447 -0.20598,0.0626 -0.30898,0.0626 -0.30898,0 -0.609,-0.1836 -0.81499,-0.5105 l -0.66722,-1.06128 -0.95381,2.47633 -0.0627,0.14776 -1.69268,3.37191 c -0.20151,0.40303 -0.53288,0.64036 -0.88664,0.64036 h -0.0761 c -0.38063,-0.0403 -0.71648,-0.35378 -0.88664,-0.81947 l -1.4643,-4.08392 -2.61067,-0.77918 -1.42847,0.5687 c -0.0985,0.0403 -0.19703,0.0582 -0.30002,0.0582 -0.2866,0 -0.56423,-0.15672 -0.76574,-0.43883 l -0.47466,-0.66276 -1.12846,4.49143 c -0.14776,0.59556 -0.55974,0.99411 -1.0165,0.99411 h -0.009 c -0.46123,-0.005 -0.86873,-0.41645 -1.01202,-1.0165 l -3.34505,-10.54118 -1.62103,-1.486677 -0.10747,-0.3045 -1.69268,-6.74383 -0.0269,-0.11644 -0.61348,-3.30475 -2.377808,13.733967 -0.02239,0.12084 -1.692676,7.07968 -0.08956,0.27317 -1.647898,3.9451 -1.66133,5.96467 -0.188075,0.43435 -1.692676,2.69574 c -0.205987,0.3269 -0.501533,0.5105 -0.814991,0.5105 h -0.08061 c -0.340327,-0.0359 -0.649307,-0.29107 -0.828427,-0.68961 l -1.692677,-3.70777 -0.07613,-0.19704 -1.692676,-5.39596 -0.06269,-0.2642 -1.55386,-9.60079 -1.079192,-0.42989 c -0.174642,-0.0672 -0.340328,-0.2015 -0.46571,-0.38062 l -1.692677,-2.3599 c -0.129863,-0.17911 -0.219421,-0.40301 -0.268679,-0.64035 l -1.647897,-8.221567 -1.522512,-3.34057 -1.200098,-1.43296 -1.204578,0.24182 h -0.30898 l -2.364373,2.83008 c 0.01791,0.0359 0.03583,0.0716 0.05822,0.10747 -1.459822,1.37027 -2.364373,2.7853 -2.861429,4.20931 -0.08957,0.10747 -0.174641,0.23285 -0.255244,0.36271 -3.143542,0.77021 -5.866155,1.48668 -8.073799,2.0957 -1.66133,-1.67477 -3.967489,-2.71367 -6.5154597,-2.71367 -0.326892,0 -0.653785,0.0179 -0.971721,0.0537 0.179118,-3.82866 0.671697,-8.64697 1.8091037,-14.12355 1.119494,-5.39595 2.991289,-11.89797 6.085574,-18.94184 1.164275,0.7702 2.556926,1.22248 4.057049,1.22248 4.05705,0 7.348366,-3.29132 7.348366,-7.34836 0,-0.30451 -0.02239,-0.609 -0.06269,-0.90455 2.189731,-0.64035 4.764571,-1.36131 7.684213,-2.11361 -0.174642,1.28518 -0.259722,2.63306 -0.223899,4.06602 0,0 -9.229116,6.01392 -10.366523,14.90717 -0.814991,6.35875 -0.62244,13.14287 0.88664,15.61472 0.0806,0.31346 0.174642,0.62692 0.277635,0.9359 l 0.04925,-0.0582 c 0.197032,-0.23734 0.447797,-0.36271 0.703043,-0.36271 0.05374,0 0.102986,0.005 0.156722,0.0179 l 2.740524,-2.81666 1.535947,-0.3045 c 0.05374,-0.008 0.102987,-0.0179 0.156722,-0.0179 0.255244,0 0.506012,0.12541 0.703044,0.36271 l 1.692676,2.02405 0.205986,0.33137 1.692677,3.71225 0.125378,0.38957 1.616551,8.06037 1.298614,1.813587 1.423998,0.56422 c 0.37615,0.15232 0.66274,0.57318 0.747822,1.0971 l 1.670287,10.31727 1.616551,5.16312 0.873205,1.91656 0.617961,-0.98515 1.625508,-5.83034 0.07164,-0.20597 1.63894,-3.91824 1.643419,-6.87818 3.371918,-19.501587 c 0.111957,-0.65827 0.541831,-1.12845 1.034411,-1.13294 h 0.009 c 0.4881,0 0.92247,0.45676 1.03889,1.11054 l 1.67925,9.04552 1.63894,6.5289 1.6255,1.49565 0.11196,0.322407 2.38676,6.54233 0.64931,-2.59724 c 0.12091,-0.48362 0.41645,-0.84185 0.77917,-0.95828 0.0806,-0.0269 0.16121,-0.0359 0.23733,-0.0359 0.28659,0 0.55975,0.15673 0.76574,0.43884 l 1.2404,1.73299 1.07471,-0.42989 c 0.0985,-0.0403 0.19703,-0.0582 0.30003,-0.0582 0.0761,0 0.15225,0.0135 0.22837,0.0313 l 3.38536,1.01203 c 0.31793,0.0941 0.59109,0.38958 0.73438,0.78813 l 0.88217,2.46289 0.61796,-1.22697 1.66133,-4.30782 c 0.16569,-0.42988 0.47467,-0.72095 0.82842,-0.77469 0.0403,-0.005 0.0806,-0.008 0.12091,-0.008 0.30898,0 0.60901,0.1836 0.815,0.51497 l 0.10298,0.16569 1.40161,-10.379957 0.0269,-0.2015 1.69267,-8.76788 c 0.12538,-0.64483 0.55079,-1.09711 1.03889,-1.09711 h 0.86425 l 1.48222,-7.67077 c 0.0627,-0.33139 0.20598,-0.61349 0.40749,-0.81501 l 1.69268,-1.68371 c 0.18807,-0.18807 0.40749,-0.28212 0.63139,-0.28212 0.12987,0 0.2642,0.0313 0.38959,0.0985 0.34032,0.1836 0.59109,0.58663 0.66274,1.0792 l 3.35401,22.38542 3.28235,8.503687 0.26421,0.52839 c 0.77469,-1.39713 1.42399,-3.10771 1.49116,-4.97504 0.10307,-2.959927 0.13878,-5.785537 -0.90007,-8.212617 1.38818,-6.31842 -0.712,-23.17801 -0.1836,-34.67298 l -1.85389,-0.17465 c -0.37615,-0.0359 -0.72094,-0.31346 -0.90902,-0.73439 l -1.75089,-3.92718 -1.73298,-2.59275 c -0.10747,-0.1657 -0.19255,-0.36272 -0.23733,-0.57319 l -1.72403,-8.06036 -0.62244,-0.81499 -0.98067,1.8315 -1.77328,4.30781 c -0.20599,0.49706 -0.60005,0.78365 -1.01202,0.78365 -0.15226,0 -0.30899,-0.0403 -0.45676,-0.12542 l -0.47019,-0.26421 -1.54938,11.31139 c -0.0672,0.50153 -0.33137,0.92246 -0.69856,1.11053 -0.13882,0.0716 -0.28212,0.10747 -0.42989,0.10747 -0.23733,0 -0.47467,-0.0941 -0.6717,-0.2821 l -1.80462,-1.6882 -0.29555,-0.41198 -0.67617,-1.39265 -0.91799,2.57483 c -0.17016,0.47019 -0.51497,0.7926 -0.91351,0.85082 -0.0403,0.005 -0.0851,0.008 -0.12538,0.008 -0.35376,0 -0.6896,-0.21046 -0.90903,-0.57766 l -1.32996,-2.23451 -1.05232,0.39406 -0.31794,0.0582 h -1.00306 l -1.53147,5.43626 c -0.1433,0.51048 -0.49258,0.87768 -0.91351,0.95829 l -1.07919,0.20151 -1.59417,6.85578 c -0.0716,0.30898 -0.22389,0.58214 -0.4254,0.77021 l -1.80463,1.68373 c -0.19703,0.1836 -0.43436,0.2821 -0.6717,0.2821 -0.12537,0 -0.25524,-0.0269 -0.37615,-0.0851 -0.35376,-0.16112 -0.62691,-0.53287 -0.72543,-0.99859 l -1.74641,-8.15439 -0.75678,-1.27622 -0.8956,1.5046 c -0.21942,0.37166 -0.55974,0.57765 -0.90903,0.57765 -0.0896,0 -0.18359,-0.0135 -0.27315,-0.0403 -0.44332,-0.13878 -0.77917,-0.60453 -0.8553,-1.18218 l -1.459817,-10.9039 -0.156722,0.17913 -1.724023,3.21967 c -0.179118,0.33585 -0.461232,0.56423 -0.779168,0.62243 l -1.804626,0.33586 c -0.05374,0.008 -0.111957,0.0135 -0.165693,0.0135 -0.273155,0 -0.541834,-0.12542 -0.7523,-0.36273 l -1.670285,-1.87178 -0.738868,-0.41198 -1.280701,2.63305 c -0.197032,0.40749 -0.541836,0.66722 -0.917987,0.68961 h -0.05374 c -0.353761,0 -0.694087,-0.21494 -0.90903,-0.57767 l -3.604774,-6.07213 -0.152254,-0.34033 -1.39713,-4.43768 c -0.371673,0.85082 -0.694088,1.74642 -0.9762,2.67783 -3.752546,0.94037 -6.990127,1.83597 -9.645568,2.61515 -0.801558,-1.20906 -1.956877,-2.16287 -3.313706,-2.72262 3.622687,-5.75421 8.136489,-11.62483 13.769789,-17.3656 2.377806,-2.42259 4.979512,-4.62576 7.746904,-6.64084 0.877685,0.58661 1.93001,0.93141 3.062938,0.93141 0.259724,0 0.510489,-0.0223 0.756779,-0.0582 0.604528,2.79874 1.226967,5.79451 1.86284,8.95597 -2.803216,0.29107 -6.900567,1.6882 -10.469516,6.70353 -0.461233,0.64483 -0.900075,1.32548 -1.321005,2.033 l 0.241811,0.47019 1.746412,5.54822 2.507668,4.22273 0.926943,-1.90761 c 0.214943,-0.44332 0.586615,-0.6941 0.971721,-0.6941 0.152255,0 0.30898,0.0403 0.456754,0.12085 l 1.804626,1.01202 0.295547,0.2418 1.406085,1.58073 0.788125,-0.14775 1.518034,-2.84351 0.192553,-0.27316 1.804627,-2.02406 c 0.210464,-0.23731 0.479143,-0.36271 0.7523,-0.36271 0.129863,0 0.259722,0.0269 0.380629,0.0851 0.389588,0.17913 0.676178,0.61349 0.743348,1.13741 l 1.35683,10.16054 0.21046,-0.35376 c 0.21495,-0.36271 0.55527,-0.57765 0.90903,-0.57765 0.35376,0 0.69409,0.21494 0.90903,0.57765 l 1.80463,3.03606 0.19255,0.50602 1.36579,6.37664 0.15225,-0.14335 1.69268,-7.27672 c 0.12986,-0.55077 0.49257,-0.9538 0.93142,-1.03888 l 1.12397,-0.21046 1.57177,-5.5751 c 0.16569,-0.58212 0.59557,-0.97171 1.07471,-0.97171 h 1.63895 l 1.64789,-0.61797 c 0.10747,-0.0403 0.21495,-0.0582 0.32242,-0.0582 0.34928,0 0.68961,0.20599 0.90903,0.57766 l 0.64483,1.08815 1.01202,-2.83009 c 0.17464,-0.49257 0.54631,-0.81947 0.96724,-0.85529 h 0.0716 c 0.39407,0 0.76126,0.25973 0.97172,0.69408 l 1.68373,3.46597 0.1433,0.13438 1.48669,-10.82775 c 0.0627,-0.44781 0.27763,-0.82842 0.58661,-1.04337 0.17017,-0.11644 0.35376,-0.17464 0.54184,-0.17464 0.15672,0 0.30898,0.0403 0.45675,0.12084 l 0.83291,0.4657 1.30757,-3.17488 0.0672,-0.14335 1.80463,-3.37192 c 0.19255,-0.36271 0.50153,-0.59557 0.84185,-0.63139 0.0358,0 0.0672,-0.005 0.10301,-0.005 0.3045,0 0.59557,0.15672 0.81499,0.43883 l 1.80463,2.35991 c 0.13433,0.17911 0.23733,0.40301 0.28659,0.64034 l 1.73745,8.10962 1.63447,2.44498 0.12541,0.22838 1.50013,3.36743 1.22249,0.11645 c 0.63139,-13.49665 0.96724,-33.67442 -1.13294,-35.74325 -1.94791,-1.92553 -5.50791,-3.18832 -9.17985,-1.27622 -3.67195,1.91209 -6.32739,5.41836 -6.32739,5.41836 0,0 -6.29604,-5.01534 -16.69839,0.0806 -5.20789,2.55245 -8.011105,10.22323 -8.463381,11.54423 -0.743344,-3.71672 -1.468777,-7.20506 -2.17182,-10.42474 1.016501,-0.99858 1.652374,-2.39123 1.652374,-3.93166 0,-0.25972 -0.02239,-0.51048 -0.05822,-0.76125 14.472837,-7.8096 31.480207,-11.396462 44.985774,-12.041291"
       id="path62"
       sodipodi:nodetypes="ccccsscccscccsssccccccscscccsccccccccsccccscccccscccccscccsscccccccccccccccscccccccccccccccccccccscccsscccccccscccsccccccccccccccccccssccccccscscccscccccccssccccsccccscccccccccccccccccsccccsccccccscccccccccscscccccscccccccscccccscccccccscsccccccccsccccccccsccccscccccccccscssccccscccccsccccccscccccccccsccccscc"
       style="fill:#006ca3;stroke-width:0.447797" />
    <path
       class="st9"
       d="m 99.720125,113.7856 c -3.027107,0 -5.834807,0.92246 -8.158877,2.50767 -3.84658,2.61513 -6.37216,7.02595 -6.37216,12.02786 0,6.0587 3.70777,11.25317 8.98283,13.43394 0.70303,-1.92553 1.63447,-4.47799 2.87039,-7.85886 0.17016,-0.46123 -0.0493,-1.01651 -0.49259,-1.23592 -0.9359,-0.47018 -2.12704,-2.26586 -2.12704,-4.33469 0,-2.92859 2.37332,-5.29745 5.301927,-5.29745 2.928595,0 5.297455,2.37333 5.297455,5.29745 0,2.0733 -1.19114,3.86451 -2.12704,4.33469 -0.43884,0.21941 -0.65827,0.77469 -0.49257,1.23592 1.23592,3.38087 2.16733,5.93333 2.87038,7.85886 5.27057,-2.18077 8.98283,-7.37524 8.98283,-13.43394 0,-8.02455 -6.50651,-14.53553 -14.535535,-14.53553 M 185.95706,80.263443 c 1.18219,5.64226 1.67476,10.60387 1.84493,14.51314 -1.7285,0.43435 -3.26445,1.35235 -4.4511,2.61066 -2.31513,-0.69856 -5.25269,-1.53594 -8.78132,-2.43601 l -8.91118,-31.38169 -2.4629,-12.09503 c 3.67643,0.95829 6.79759,1.88524 9.33659,2.69574 -0.0626,0.38959 -0.10307,0.78365 -0.10307,1.19114 0,4.05706 3.29132,7.34838 7.34836,7.34838 0.21494,0 0.42988,-0.0135 0.64483,-0.0313 2.76291,6.5244 4.47797,12.54281 5.53478,17.59397 m -11.70096,-29.73379 c -0.25524,0.29107 -0.49257,0.59558 -0.69856,0.92246 -2.951,-0.94037 -6.70353,-2.04196 -11.20392,-3.17936 -0.008,-0.0135 -0.0223,-0.0269 -0.0313,-0.0359 -0.0403,-0.0448 -0.0851,-0.0806 -0.12981,-0.12085 -0.0179,-0.0179 -0.0313,-0.0359 -0.0538,-0.0493 l -13.70262,-10.33965 c 0.60902,-3.12115 1.11503,-5.96019 1.55834,-8.47682 0.23733,-1.34786 0.45676,-2.60617 0.6717,-3.77045 0.0313,0 0.0626,0.005 0.0895,0.005 0.5866,0 1.14635,-0.0941 1.67476,-0.25973 2.42706,1.83148 4.72426,3.81524 6.84234,5.97362 6.27814,6.39904 11.16809,12.95927 14.97884,19.33592 m -28.97241,-30.05237 c 0.1657,1.77328 1.16429,3.30476 2.6062,4.18691 -0.23287,1.25384 -0.47467,2.61514 -0.72991,4.07945 -0.38959,2.2166 -0.82843,4.68396 -1.3434,7.36626 l -24.92892,-13.73396 c 0,0 -0.0223,-0.008 -0.0313,-0.0135 -0.1836,-0.0941 -0.38959,-0.15672 -0.609,-0.16569 h -0.0716 c -0.0582,-0.0223 -0.11644,-0.0493 -0.17463,-0.0626 l -16.9805,-4.27648 -0.76125,-7.09312 c 1.50011,-0.461228 2.71365,-1.553854 3.36743,-2.95994 12.71747,1.522512 27.2709,5.45866 39.65699,12.6682 m -43.45431,43.34236 c 0,0 0.0269,-0.0135 0.0403,-0.0179 l 18.54779,22.79292 c -0.62244,1.0389 -0.99859,2.24348 -0.99859,3.54209 0,0.1836 0.0135,0.36271 0.0269,0.54182 l -16.87302,-0.17911 -0.74782,-26.67981 z m 1.02098,29.56364 17.4865,0.1836 c 0,0 0.008,0.008 0.008,0.0179 l -16.17895,8.530537 z m 5.92884,9.555987 13.58619,-7.160267 c 0.73887,0.52392 1.58073,0.90455 2.49424,1.11052 l -0.0895,6.358747 -15.9864,-0.30451 z m 3.39431,2.94205 13.37572,0.25524 20.63901,5.13176 c -0.0313,0.21942 -0.0537,0.44332 -0.0537,0.6717 0,0.28659 0.0313,0.5687 0.0806,0.84187 L 125.8403,125.0655 c -0.36719,-0.23733 -0.7702,-0.42093 -1.20009,-0.5508 -0.64931,-4.74218 -2.41811,-9.05895 -5.15416,-12.43088 -2.31511,-2.85695 -4.89891,-4.82725 -7.31702,-6.19303 m 12.07711,27.85751 c 0.51496,-0.10747 1.00756,-0.29107 1.4464,-0.55079 l 14.69672,12.39952 c -3.75702,0.70752 -10.28592,1.77328 -14.16832,1.45982 -3.64061,-0.29554 -6.03633,-2.07777 -7.17373,-3.15249 1.37027,-1.70164 3.97196,-5.39597 5.19893,-10.15159 m 18.39555,9.97246 -15.02362,-12.67269 c 0.27315,-0.60004 0.4254,-1.26278 0.4254,-1.96583 0,-0.63139 -0.12541,-1.23144 -0.34481,-1.78223 l 19.85538,-11.96068 c 0.29105,0.29107 0.6269,0.53735 0.98515,0.74334 l -5.89303,27.63809 z m 3.21966,-1.29413 5.49,-25.73942 c 0.63139,-0.0582 1.22697,-0.23734 1.75984,-0.51946 l 9.01419,11.56215 -16.26851,14.69673 z m 17.56711,-17.70594 -8.27978,-10.61729 c 0.33137,-0.64929 0.51945,-1.37922 0.51945,-2.15838 0,-0.47914 -0.0716,-0.9359 -0.20152,-1.37474 l 14.28028,-10.06649 -6.31843,24.21243 z m 0.92248,-55.226917 7.14237,25.16624 -9.07239,-1.08367 c -0.21941,-1.8897 -1.38818,-3.48387 -3.01816,-4.29886 l 4.94369,-19.78371 z m -7.84542,30.2398 c 0.14335,0.008 0.28658,0.0179 0.42988,0.0179 2.27032,0 4.22273,-1.37027 5.07355,-3.33162 l 7.29463,0.86872 -14.89824,10.505337 2.10464,-8.064837 z m -2.93756,-9.88738 c -0.81499,0.62692 -1.45087,1.47774 -1.81807,2.46289 -5.69599,-0.62244 -11.89351,-1.1195 -18.53435,-1.50012 0.0223,-0.21943 0.0359,-0.44332 0.0359,-0.66722 0,-2.07779 -0.91797,-3.93615 -2.36884,-5.20341 l 10.74267,-33.14153 c 0.24182,0.0582 0.49257,0.0985 0.74783,0.12084 l 11.19943,37.93298 z m -25.78422,-60.36765 16.85064,9.28733 -2.22556,3.66299 c -0.47913,0.0359 -0.93141,0.14775 -1.3613,0.31794 l -13.26824,-13.26378 z m -6.80653,11.04717 0.51498,-13.27273 17.29843,17.29396 -14.78182,-0.77916 c -0.41644,-1.51804 -1.55833,-2.73605 -3.03606,-3.24653 m 6.75727,56.37776 c 1.93897,-0.40303 3.58686,-1.60312 4.56307,-3.25998 6.89608,0.38064 13.32198,0.89561 19.20157,1.53595 0.25973,1.48221 1.10606,2.76291 2.29273,3.58687 l -2.20765,8.467857 c -0.22389,-0.0313 -0.44779,-0.0582 -0.67617,-0.0582 -1.3434,0 -2.55693,0.55975 -3.42565,1.45535 l -19.84642,-4.93473 z m -1.1777,-13.65784 -5.06012,-33.9207 c 1.11053,-0.54182 1.97926,-1.49565 2.40467,-2.66888 l 14.13251,0.74335 c 0.0493,1.06576 0.43884,2.04644 1.07471,2.81665 l -10.79193,33.30273 c -0.55975,-0.16569 -1.15084,-0.25524 -1.75984,-0.27315 m -7.90811,-33.50425 5.07353,34.00131 c -0.47018,0.19255 -0.90453,0.45226 -1.31651,0.73887 l -18.37315,-22.57798 c 0.37167,-0.64931 0.59556,-1.39266 0.59556,-2.19869 0,-0.51048 -0.0941,-0.99411 -0.25077,-1.45087 l 12.30997,-9.3321 c 0.57766,0.40301 1.23593,0.69857 1.96137,0.81499 m -16.05804,-15.1714 0.48362,-13.70709 14.34745,3.61373 -14.8266,10.09336 z m 16.03116,-7.42896 -0.51945,13.32198 c -0.87319,0.25524 -1.64789,0.74335 -2.23898,1.40609 l -12.05473,-4.64814 14.81316,-10.08442 z m -3.97196,17.90296 c 0,0.56422 0.10307,1.10157 0.28659,1.60759 l -12.33684,9.35002 c -0.23733,-0.15232 -0.48362,-0.29107 -0.74783,-0.39854 l 0.55975,-15.82517 12.27414,4.72874 c -0.0223,0.17912 -0.0313,0.35825 -0.0313,0.54183 m 47.99052,19.41204 -6.06319,24.25274 c -0.11204,0.008 -0.22389,0.0313 -0.33585,0.0448 l -11.06061,-37.46725 c 0.21942,-0.12981 0.42988,-0.27316 0.62692,-0.43437 l 16.83273,13.59963 z m -15.36396,-18.85676 c -0.35823,-1.01651 -1.03889,-1.87628 -1.93449,-2.44945 l 1.72852,-2.84353 9.09925,6.86922 z m 12.84733,5.20341 1.93,9.4754 -14.48626,-11.70095 z m 31.40407,43.82151 c -0.17913,-4.03019 -0.68961,-9.1306 -1.90314,-14.95645 -1.08815,-5.23925 -2.85695,-11.48155 -5.70494,-18.2433 1.93,-1.32547 3.20175,-3.54656 3.20175,-6.06319 0,-4.05704 -3.29132,-7.34836 -7.34836,-7.34836 -0.85977,0 -1.67924,0.16113 -2.44947,0.43437 -3.93613,-6.54681 -8.96043,-13.28168 -15.40424,-19.84193 -1.96583,-2.00166 -4.13765,-3.91376 -6.47963,-5.73182 0.51943,-0.84185 0.82394,-1.82701 0.82394,-2.88829 0,-3.04503 -2.46736,-5.51239 -5.51239,-5.51239 -1.84941,0 -3.48387,0.9135 -4.48246,2.31063 -4.23617,-2.40915 -8.83057,-4.54962 -13.72501,-6.367683 C 124.17454,7.308063 115.10663,5.181022 105.95363,4.119742 105.33568,1.75089 103.18625,0 100.62484,0 c -3.045022,0 -5.512392,2.467367 -5.512392,5.512393 0,2.606185 1.81358,4.786961 4.245117,5.36014 l 0.877685,8.20367 -0.635865,18.03729 -0.0135,0.0269 c -0.12541,0.31793 -0.11644,0.65378 -0.0223,0.95829 l -0.609,17.34321 c -1.858357,0.5284 -3.219667,2.23451 -3.219667,4.26303 0,2.02852 1.35234,3.72121 3.197277,4.25856 l 0.78365,28.00977 c 0,0.0313 0.008,0.0582 0.0135,0.0895 v 0.0851 l 2.037475,13.487677 1.14189,0.0895 c 0.0806,0.005 8.29321,0.72991 14.32505,8.17232 2.34199,2.88829 3.87793,6.58711 4.49142,10.67549 -1.88075,0.64036 -3.2331,2.41811 -3.2331,4.51381 0,1.93897 1.15979,3.60478 2.82112,4.35259 -1.56729,5.52136 -5.20342,9.45303 -5.24818,9.50228 l -0.83292,0.87769 0.72096,0.97172 c 0.13878,0.18808 3.49731,4.60336 10.01724,5.13177 0.5508,0.0447 1.14189,0.0672 1.76433,0.0672 6.26469,0 15.65053,-2.05538 16.14759,-2.16285 v 0 h 0.005 l 0.37167,-0.0806 21.09129,-19.05381 8.02005,-30.750287 0.33138,-0.23285 c 3.11668,0.7926 5.77211,1.53595 7.94841,2.18526 -0.52392,1.155307 -0.82394,2.436017 -0.82394,3.783897 0,5.07353 4.11078,9.18433 9.18433,9.18433 5.07355,0 9.18433,-4.1108 9.18433,-9.18433 0,-4.563067 -3.32713,-8.338007 -7.68868,-9.054487"
       id="path65"
       sodipodi:nodetypes="ccscccssscccsccccccccsscccccccccscscccccccccccccccccccsccccccccccccccccccscccccccccccccscccccccccccccscccccccccccsccccccccscccccccccccccccccccccsccccccccccccccsccccccccccccccccccccccccccccccccccccccccsscscsscccssccccccsccccccccsccccssscccccccsssc"
       style="fill:#f7941d;stroke-width:0.447797" />
  </g>
</svg>
