<?xml version="1.0" encoding="UTF-8" standalone="no"?>
<!-- Created with Inkscape (http://www.inkscape.org/) -->

<svg
   width="325mm"
   height="56mm"
   viewBox="0 0 325 56"
   version="1.1"
   id="svg1"
   inkscape:version="1.4 (e7c3feb1, 2024-10-09)"
   sodipodi:docname="eegdash_long.svg"
   xmlns:inkscape="http://www.inkscape.org/namespaces/inkscape"
   xmlns:sodipodi="http://sodipodi.sourceforge.net/DTD/sodipodi-0.dtd"
   xmlns="http://www.w3.org/2000/svg"
   xmlns:svg="http://www.w3.org/2000/svg">
  <sodipodi:namedview
     id="namedview1"
     pagecolor="#ffffff"
     bordercolor="#000000"
     borderopacity="0.25"
     inkscape:showpageshadow="2"
     inkscape:pageopacity="0.0"
     inkscape:pagecheckerboard="0"
     inkscape:deskcolor="#d1d1d1"
     inkscape:document-units="mm"
     showguides="true"
     inkscape:zoom="1.1105461"
     inkscape:cx="774.39379"
     inkscape:cy="33.316942"
     inkscape:window-width="1512"
     inkscape:window-height="917"
     inkscape:window-x="0"
     inkscape:window-y="65"
     inkscape:window-maximized="0"
     inkscape:current-layer="layer1"
     showgrid="false">
    <sodipodi:guide
       position="86.951241,1.3197903"
       orientation="0,-1"
       id="guide1"
       inkscape:locked="false" />
    <sodipodi:guide
       position="115.22227,70.729446"
       orientation="1,0"
       id="guide2"
       inkscape:locked="false" />
    <sodipodi:guide
       position="100.06338,45.278923"
       orientation="1,0"
       id="guide3"
       inkscape:locked="false" />
    <sodipodi:guide
       position="96.013198,28.601693"
       orientation="0,-1"
       id="guide4"
       inkscape:locked="false" />
    <sodipodi:guide
       position="325.20599,47.184892"
       orientation="1,0"
       id="guide5"
       inkscape:locked="false" />
  </sodipodi:namedview>
  <defs
     id="defs1">
    <clipPath
       id="clippath-9">
      <rect
         class="st11"
         x="36"
         y="233.97"
         width="523.28003"
         height="127.34"
         id="rect10" />
    </clipPath>
    <clipPath
       id="clippath-9-0">
      <rect
         class="st11"
         x="36"
         y="233.97"
         width="523.28003"
         height="127.34"
         id="rect10-2" />
    </clipPath>
  </defs>
  <g
     inkscape:label="Layer 1"
     inkscape:groupmode="layer"
     id="layer1">
    <g
       class="st7"
       clip-path="url(#clippath-9-0)"
       id="g347"
       transform="matrix(0.67975136,0,0,0.67975136,-63.607719,-177.32484)">
      <path
         class="st9"
         d="m 365.85198,329.02 c 3.02,0.4 7.48,0.79 13.76,0.79 10.5,0 19.09,-2.23 24.73,-6.92 5.17,-4.37 8.91,-11.45 8.91,-21.71 0,-9.46 -3.5,-16.06 -9.07,-20.2 -5.17,-3.9 -11.77,-5.73 -21.95,-5.73 -6.12,0 -11.93,0.4 -16.38,1.11 v 52.65 z m 12.17,-43.98 c 1.03,-0.24 2.78,-0.48 5.49,-0.48 10.42,0 16.94,5.89 16.86,17.02 0,12.81 -7.16,18.85 -18.13,18.77 -1.51,0 -3.18,0 -4.21,-0.24 v -35.07 z m 69.75,30.46 4.14,13.76 h 13.04 l -16.62,-53.6 h -15.91 l -16.38,53.6 h 12.57 l 3.82,-13.76 h 15.35 z m -13.6,-9.06 3.18,-11.37 c 0.88,-3.1 1.67,-7.16 2.47,-10.34 h 0.16 c 0.8,3.18 1.75,7.16 2.7,10.34 l 3.34,11.37 z m 35.87,20.36 c 3.02,1.67 9.07,3.26 15.19,3.26 14.71,0 21.63,-7.64 21.63,-16.62 0,-7.56 -4.45,-12.49 -13.92,-15.99 -6.92,-2.62 -9.94,-4.14 -9.94,-7.55 0,-2.78 2.54,-5.17 7.79,-5.17 5.25,0 9.07,1.51 11.21,2.55 l 2.7,-9.78 c -3.18,-1.43 -7.64,-2.7 -13.68,-2.7 -12.65,0 -20.28,7 -20.28,16.15 0,7.79 5.81,12.73 14.71,15.83 6.44,2.31 8.99,4.22 8.99,7.56 0,3.34 -2.94,5.81 -8.51,5.81 -5.17,0 -10.18,-1.67 -13.44,-3.34 l -2.46,10.02 z m 45.01,-51.14 v 53.6 h 12.17 v -22.43 h 19.96 v 22.43 h 12.09 v -53.6 h -12.09 v 20.6 h -19.96 v -20.6 z"
         id="path344"
         style="fill:#f7941d" />
      <path
         class="st22"
         d="m 252.15734,296.97 h -19.73 v -11.14 h 20.92 v -9.94 h -33.09 v 53.6 h 34.2 v -9.94 h -22.03 v -12.73 h 19.73 v -9.86 z m 42.47,0 h -19.72 v -11.14 h 20.92 v -9.94 h -33.09 v 53.6 h 34.2 v -9.94 h -22.03 v -12.73 h 19.72 v -9.86 z m 55.36,1.83 h -19.96 v 9.47 h 8.27 v 11.21 c -0.96,0.48 -3.18,0.8 -5.97,0.8 -9.94,0 -16.86,-6.52 -16.86,-17.58 0,-11.61 7.63,-17.34 17.74,-17.34 5.89,0 9.54,1.03 12.49,2.31 l 2.55,-9.7 c -2.62,-1.27 -7.95,-2.62 -14.87,-2.62 -17.58,0 -30.54,10.18 -30.62,28 -0.08,7.87 2.62,14.87 7.56,19.49 4.93,4.77 12.01,7.24 21.79,7.24 7.08,0 14.16,-1.75 17.9,-3.02 v -28.23 z"
         id="path345"
         style="fill:#006ca3" />
    </g>
    <path
       class="st22"
       d="m 36.565635,2.685612 -0.06593,-1.384563 c -4.38225,0.206586 -8.81285,1.103255 -12.817094,2.593308 -1.60873,0.597779 -3.129551,1.2878625 -4.549277,2.0570639 -0.364823,-0.3340532 -0.852716,-0.5450341 -1.388959,-0.5450341 -1.134023,0 -2.057064,0.9186462 -2.057064,2.0570642 0,0.2065855 0.03077,0.4087756 0.08791,0.5977794 -1.120836,0.8175511 -2.149368,1.692243 -3.054828,2.6196806 -2.364745,2.408699 -4.219619,4.878934 -5.678904,7.287633 -1.283467,0.228563 -2.259254,1.349399 -2.259254,2.698798 0,0.395589 0.08351,0.769201 0.237354,1.112046 C 3.652608,24.746307 2.852638,27.489059 2.382327,29.739523 1.885642,32.139431 1.701034,34.200891 1.65708,35.770061 0.66810703,36.372236 0,37.457909 0,38.701818 c 0,1.894433 1.534008,3.42844 3.428441,3.42844 1.894433,0 3.42844,-1.534007 3.42844,-3.42844 0,-0.465917 -0.0923,-0.914251 -0.263726,-1.318631 0.55822,-0.153841 1.195559,-0.320867 1.898828,-0.496685 -0.08791,0.839529 -0.03077,1.876852 0.140654,2.874616 0.224168,1.301049 1.2790723,2.382326 2.241673,3.12076 -0.329658,1.098859 -0.527452,2.439467 0.05714,3.327345 1.147208,1.740593 1.46368,1.481262 1.46368,1.481262 0,0 -0.826342,2.06146 0.316471,3.094387 1.147209,1.032928 2.544958,1.094464 2.544958,1.094464 0,0 0.892274,2.962524 3.054828,2.900988 2.162554,-0.06593 3.371299,-0.646129 3.371299,-0.646129 0,0 1.463681,1.032927 3.626237,1.094463 2.580121,0.659316 5.208592,-0.988973 6.100866,-1.626311 -1.538403,-1.498844 -2.496608,-3.591072 -2.496608,-5.911862 0,-3.696562 2.435072,-6.821717 5.78879,-7.867831 l -0.0923,-0.184609 -0.02198,-0.05274 -1.261491,-3.270204 -0.03956,-0.14505 -1.138418,-7.595314 -0.01319,0.01319 -0.593383,3.081201 c -0.04835,0.241749 -0.206586,0.408776 -0.386799,0.408776 h -0.325263 l -0.545035,2.826265 -0.628547,5.072334 c -0.01758,0.215376 -0.127468,0.395589 -0.281308,0.461521 -0.03956,0.01758 -0.07912,0.02198 -0.114281,0.02198 -0.114282,0 -0.228563,-0.06593 -0.303285,-0.193399 l -0.246145,-0.395589 -0.35603,0.923041 -0.02198,0.05274 -0.632943,1.257095 c -0.07472,0.149445 -0.197795,0.237354 -0.329658,0.237354 -0.0088,0 -0.01758,0 -0.03077,0 -0.140654,-0.01319 -0.268122,-0.131863 -0.329658,-0.307681 l -0.545034,-1.525216 -0.975787,-0.290099 -0.531849,0.210981 c -0.03516,0.01319 -0.07472,0.02198 -0.109886,0.02198 -0.105491,0 -0.210981,-0.05714 -0.285704,-0.162631 l -0.175817,-0.246144 -0.421962,1.674661 c -0.05714,0.219772 -0.206585,0.373612 -0.378007,0.373612 v 0 c -0.171422,0 -0.325263,-0.15384 -0.378008,-0.378008 l -1.248304,-3.933915 -0.60657,-0.553825 -0.03956,-0.114281 -0.632943,-2.518586 -0.0088,-0.04395 -0.228563,-1.230722 -0.887878,5.125079 -0.0088,0.04395 -0.632943,2.641657 -0.03516,0.101095 -0.615361,1.472472 -0.619756,2.22409 -0.07033,0.162632 -0.632943,1.006555 c -0.07472,0.123072 -0.189004,0.189003 -0.303285,0.189003 -0.0088,0 -0.02198,0 -0.03077,0 -0.127468,-0.01319 -0.241749,-0.109886 -0.312076,-0.254935 l -0.632943,-1.384562 -0.03077,-0.07472 -0.632943,-2.01311 -0.02198,-0.0967 -0.580198,-3.582281 -0.40438,-0.162631 c -0.06593,-0.02637 -0.127467,-0.07472 -0.175817,-0.140654 l -0.632943,-0.879087 c -0.04835,-0.06593 -0.08351,-0.149445 -0.101095,-0.241749 l -0.615361,-3.068015 -0.567011,-1.248304 -0.448335,-0.536243 -0.448334,0.08791 h -0.114282 l -0.883483,1.054904 c 0,0 0.01319,0.02637 0.02198,0.03956 -0.5450337,0.509871 -0.8834827,1.041719 -1.068091,1.573566 -0.03516,0.03956 -0.06593,0.08791 -0.0967,0.136259 C 7.687583,35.778866 6.672238,36.046988 5.850291,36.275551 5.230535,35.651399 4.369029,35.2646 3.419615,35.2646 c -0.123072,0 -0.241749,0.0088 -0.364821,0.01758 0.06593,-1.428517 0.250539,-3.22625 0.672501,-5.270128 0.417567,-2.01311 1.116441,-4.439391 2.268045,-7.067862 0.435149,0.285704 0.95381,0.457126 1.512031,0.457126 1.516425,0 2.742752,-1.226327 2.742752,-2.742753 0,-0.114281 -0.0088,-0.224167 -0.02198,-0.338448 0.817551,-0.237354 1.780151,-0.505476 2.865824,-0.786783 -0.06593,0.479102 -0.0967,0.984577 -0.08351,1.516425 0,0 -3.4460217,2.246068 -3.8679837,5.564622 -0.3032853,2.373536 -0.2329583,4.905307 0.329658,5.828349 0.03077,0.118677 0.06593,0.232958 0.101095,0.34724 l 0.01758,-0.02198 c 0.07472,-0.08791 0.167027,-0.136258 0.263727,-0.136258 0.01758,0 0.03956,0 0.05714,0.0044 L 10.93581,31.585621 11.511612,31.47134 c 0,0 0.03956,-0.0044 0.05714,-0.0044 0.0967,0 0.189004,0.04835 0.263726,0.136259 l 0.632943,0.756015 0.07472,0.123072 0.632943,1.384562 0.04835,0.14505 0.602175,3.010874 0.483498,0.676897 0.531848,0.210981 c 0.140653,0.05714 0.246144,0.215376 0.281307,0.408776 l 0.624152,3.850402 0.602175,1.925201 0.325262,0.716456 0.228563,-0.369217 0.60657,-2.175741 0.02637,-0.07912 0.610966,-1.459285 0.615361,-2.566935 1.257094,-7.278843 c 0.04395,-0.246144 0.20219,-0.421962 0.386799,-0.421962 v 0 c 0.184608,0 0.342844,0.171422 0.386798,0.413171 l 0.628548,3.375695 0.610965,2.435072 0.60657,0.558221 0.03956,0.118676 0.892274,2.439468 0.241749,-0.966996 c 0.04395,-0.180213 0.15384,-0.316472 0.290099,-0.356031 0.03077,-0.0088 0.06154,-0.01319 0.08791,-0.01319 0.10549,0 0.206585,0.05714 0.285703,0.162631 l 0.461521,0.646129 0.399987,-0.158235 c 0.03516,-0.01319 0.07472,-0.02198 0.114281,-0.02198 0.03077,0 0.05714,0 0.08351,0.01319 l 1.26149,0.378007 c 0.118677,0.03516 0.219772,0.14505 0.272517,0.294494 l 0.329658,0.918647 0.228563,-0.457126 0.619756,-1.608729 c 0.06154,-0.162632 0.175818,-0.268122 0.312076,-0.290099 0.01319,0 0.03077,0 0.04395,0 0.114282,0 0.228563,0.07033 0.303286,0.189003 l 0.03956,0.06154 0.523057,-3.87238 0.0088,-0.07472 0.632943,-3.270205 c 0.04835,-0.241749 0.206586,-0.408776 0.386799,-0.408776 h 0.320867 l 0.553825,-2.861429 c 0.02198,-0.123072 0.07912,-0.228562 0.15384,-0.303285 l 0.632943,-0.628547 c 0.07033,-0.07033 0.15384,-0.105491 0.237353,-0.105491 0.04835,0 0.0967,0.01319 0.14505,0.03516 0.127467,0.06593 0.219771,0.219772 0.246144,0.40438 l 1.252699,8.355725 1.226327,3.173505 0.101095,0.197794 c 0.290112,-0.523063 0.531861,-1.160401 0.558233,-1.85488 0.03956,-1.103254 0.05275,-2.158159 -0.338448,-3.063619 0.518661,-2.355954 -0.263726,-8.650219 -0.06593,-12.940165 l -0.690083,-0.06593 C 34.688765,21.295887 34.561297,21.1904 34.49097,21.032164 l -0.65492,-1.46368 -0.646129,-0.966996 c -0.03956,-0.06154 -0.07033,-0.136259 -0.08791,-0.215376 l -0.641734,-3.006479 -0.232958,-0.303285 -0.364821,0.685688 -0.663711,1.60873 c -0.07472,0.184608 -0.224167,0.294494 -0.378007,0.294494 -0.05714,0 -0.114282,-0.01319 -0.171422,-0.04395 l -0.175818,-0.0967 -0.580197,4.219619 c -0.02637,0.189004 -0.123073,0.342844 -0.259331,0.413171 -0.05274,0.02637 -0.105491,0.03956 -0.158236,0.03956 -0.08791,0 -0.175817,-0.03516 -0.25054,-0.10549 l -0.672502,-0.628548 -0.109885,-0.15384 -0.254936,-0.518662 -0.342844,0.962601 c -0.06154,0.175817 -0.193399,0.294494 -0.342844,0.316471 -0.01758,0 -0.03077,0 -0.04835,0 -0.131863,0 -0.259331,-0.07912 -0.338448,-0.215376 l -0.496685,-0.835133 -0.391193,0.145049 -0.118677,0.02198 H 25.73526 l -0.571407,2.026296 c -0.05275,0.189004 -0.18461,0.329658 -0.33845,0.35603 l -0.40438,0.07472 -0.593384,2.558144 c -0.02637,0.114282 -0.08351,0.215377 -0.158236,0.285704 l -0.672502,0.628547 c -0.07472,0.07033 -0.162631,0.105491 -0.25054,0.105491 -0.04835,0 -0.0967,-0.0088 -0.140654,-0.03077 -0.131863,-0.06154 -0.232958,-0.197795 -0.272517,-0.373613 l -0.650524,-3.041639 -0.281308,-0.474707 -0.334053,0.562615 c -0.08351,0.136259 -0.206586,0.215377 -0.338449,0.215377 -0.03516,0 -0.07033,-0.0044 -0.101095,-0.01758 -0.167027,-0.05274 -0.290099,-0.224168 -0.320867,-0.439544 l -0.545034,-4.070174 -0.05714,0.06593 -0.641734,1.199954 c -0.06593,0.127468 -0.171422,0.210981 -0.290099,0.232958 l -0.672501,0.127468 c 0,0 -0.03956,0.0044 -0.06154,0.0044 -0.101095,0 -0.20219,-0.04835 -0.281308,-0.136259 l -0.624152,-0.698874 -0.276912,-0.15384 -0.479103,0.984577 c -0.07472,0.153841 -0.20219,0.25054 -0.342844,0.259331 -0.0044,0 -0.01319,0 -0.02198,0 -0.131863,0 -0.259331,-0.07912 -0.338449,-0.215376 l -1.345003,-2.26365 -0.05714,-0.127468 -0.523057,-1.657079 c -0.136258,0.316471 -0.25933,0.650524 -0.364821,0.997764 -1.402144,0.351635 -2.606494,0.685688 -3.5998617,0.975787 -0.29889,-0.45273 -0.729643,-0.80876 -1.2351183,-1.015346 1.3537943,-2.144973 3.037247,-4.338296 5.138265,-6.478873 0.887878,-0.90546 1.85927,-1.7274069 2.892197,-2.4790265 0.329658,0.2197718 0.720852,0.3472394 1.142814,0.3472394 0.0967,0 0.189004,-0.00879 0.281308,-0.021977 0.224167,1.0461141 0.457125,2.1625551 0.694478,3.3449271 -1.046113,0.109886 -2.575725,0.628548 -3.907542,2.501003 -0.171422,0.241749 -0.334053,0.492289 -0.492289,0.756015 l 0.08791,0.175818 0.650524,2.07025 0.936228,1.573567 0.34724,-0.712061 c 0.07912,-0.167027 0.219771,-0.259331 0.364821,-0.259331 0.05714,0 0.114281,0.01319 0.171422,0.04395 l 0.672502,0.378008 0.109885,0.08791 0.527453,0.588988 0.294494,-0.05274 0.567011,-1.0593 0.07033,-0.101095 0.672501,-0.756015 c 0.07912,-0.08791 0.180213,-0.136259 0.281308,-0.136259 0.04835,0 0.0967,0.0088 0.140654,0.03077 0.14505,0.06593 0.25054,0.228563 0.276913,0.426358 l 0.505475,3.793261 0.07912,-0.131863 c 0.07912,-0.136258 0.206586,-0.215376 0.338449,-0.215376 0.131863,0 0.25933,0.07912 0.338448,0.215376 l 0.672502,1.134023 0.07472,0.189004 0.509871,2.382326 0.05714,-0.05274 0.632942,-2.71638 c 0.04835,-0.206585 0.184609,-0.35603 0.34724,-0.386798 l 0.421962,-0.07912 0.584593,-2.083437 c 0.06154,-0.215376 0.224169,-0.364821 0.399986,-0.364821 h 0.610966 l 0.615361,-0.228563 c 0.03956,-0.01319 0.07912,-0.02198 0.118677,-0.02198 0.131863,0 0.254935,0.07912 0.338448,0.215376 l 0.241749,0.404381 0.378008,-1.054905 c 0.06593,-0.184608 0.206585,-0.307681 0.360426,-0.320867 0.0088,0 0.01758,0 0.02637,0 0.14505,0 0.285704,0.0967 0.360426,0.259331 l 0.628547,1.292258 0.05275,0.04835 0.553825,-4.039406 c 0.02198,-0.167027 0.10549,-0.307681 0.219771,-0.391194 0.06154,-0.04395 0.131864,-0.06593 0.202191,-0.06593 0.05714,0 0.114281,0.01758 0.171422,0.04395 l 0.312076,0.175818 0.487893,-1.186768 0.02637,-0.05274 0.672502,-1.257095 c 0.07033,-0.136269 0.189008,-0.219782 0.316475,-0.237364 0.01319,0 0.02637,0 0.03956,0 0.114282,0 0.224167,0.05714 0.303285,0.162631 l 0.672502,0.879087 c 0.05274,0.06593 0.08791,0.149445 0.105491,0.241749 l 0.646129,3.028456 0.610965,0.914251 0.04835,0.08351 0.558221,1.257095 0.457125,0.04395 C 35.805225,15.238978 35.928297,7.7095954 35.145909,6.9359986 34.420662,6.2151471 33.088845,5.7448354 31.721864,6.4612915 c -1.366981,0.7164561 -2.360349,2.0219008 -2.360349,2.0219008 0,0 -2.351559,-1.872456 -6.232731,0.030768 -1.942783,0.9538097 -2.988897,3.8152387 -3.155923,4.3075277 -0.276913,-1.388958 -0.54943,-2.690007 -0.80876,-3.8899612 0.378007,-0.3736121 0.615361,-0.8922736 0.615361,-1.4680758 0,-0.0967 -0.0088,-0.1890038 -0.02198,-0.2857034 C 25.159475,4.263573 31.506485,2.922965 36.54805,2.685612"
       id="path346-5"
       style="fill:#006ca3;stroke-width:0.439544" />
    <path
       class="st9"
       d="m 37.198578,42.468706 c -1.129627,0 -2.175741,0.34724 -3.046038,0.936228 -1.437307,0.975787 -2.377931,2.624076 -2.377931,4.487741 0,2.26365 1.384563,4.197642 3.349323,5.015193 0.263726,-0.716456 0.610966,-1.670266 1.072486,-2.931756 0.06154,-0.171422 -0.01758,-0.378008 -0.184608,-0.461521 -0.351635,-0.175817 -0.795574,-0.843924 -0.795574,-1.617521 0,-1.094463 0.883483,-1.977946 1.977946,-1.977946 1.094464,0 1.977947,0.883483 1.977947,1.977946 0,0.773597 -0.443939,1.441704 -0.795574,1.617521 -0.162631,0.08351 -0.246145,0.290099 -0.184608,0.461521 0.461521,1.26149 0.80876,2.2153 1.072486,2.931756 1.969156,-0.813156 3.353718,-2.751543 3.353718,-5.015193 0,-2.997688 -2.426281,-5.423969 -5.423969,-5.423969 M 69.381964,29.959295 c 0.439543,2.105414 0.624152,3.960288 0.690083,5.415177 -0.646129,0.162631 -1.217536,0.505475 -1.661475,0.975787 -0.865901,-0.263726 -1.960365,-0.571407 -3.278995,-0.909855 L 61.808627,23.726566 60.88998,19.212453 c 1.371377,0.360425 2.536167,0.703269 3.485581,1.006555 -0.02198,0.145049 -0.03956,0.294494 -0.03956,0.443939 0,1.516425 1.226326,2.742752 2.742752,2.742752 0.07912,0 0.162631,-0.0044 0.241749,-0.01319 1.032927,2.435071 1.670266,4.681139 2.065855,6.566782 M 65.0129,18.865213 c -0.0967,0.109886 -0.184609,0.224167 -0.259331,0.342844 -1.103255,-0.351635 -2.501003,-0.76041 -4.18006,-1.186768 0,-0.0044 -0.0088,-0.0088 -0.01319,-0.01319 -0.01319,-0.01758 -0.03077,-0.03077 -0.04835,-0.04395 -0.0088,-0.0044 -0.01319,-0.01319 -0.02198,-0.01758 l -5.111893,-3.859193 c 0.228563,-1.16479 0.417567,-2.224091 0.580198,-3.164714 0.08791,-0.50108 0.171422,-0.9713916 0.25054,-1.4065398 0.01319,0 0.02198,0 0.03516,0 0.219772,0 0.426357,-0.035164 0.624152,-0.0967 0.90546,0.6856878 1.76257,1.4241218 2.553749,2.2284868 2.342767,2.386722 4.166873,4.83498 5.590995,7.217306 M 54.200126,7.6524548 c 0.06154,0.6637109 0.435148,1.2351176 0.971392,1.5647753 -0.08791,0.4659163 -0.175818,0.9757869 -0.272517,1.5208209 -0.14505,0.826342 -0.307681,1.749384 -0.50108,2.751543 L 45.097177,8.3645155 c 0,0 -0.0088,0 -0.01319,-0.0044 -0.06593,-0.035164 -0.145049,-0.057141 -0.228563,-0.061536 -0.0088,0 -0.01758,0 -0.02637,0 -0.02198,-0.00879 -0.04396,-0.017582 -0.06593,-0.021977 L 38.424905,6.6810633 38.143597,4.035011 c 0.55822,-0.171422 1.01095,-0.580198 1.257095,-1.103255 4.747071,0.567011 10.179831,2.0350871 14.799434,4.7250942 M 37.985361,23.827661 c 0,0 0.0088,-0.0044 0.01319,-0.0088 l 6.922813,8.505169 c -0.232958,0.386799 -0.373612,0.835133 -0.373612,1.323027 0,0.07033 0.0044,0.136258 0.0088,0.20219 l -6.29867,-0.06593 -0.276912,-9.955663 z m 0.382403,11.032545 6.527223,0.07033 c 0,0 0,0 0,0.0044 l -6.039329,3.182288 -0.492289,-3.257018 z m 2.210905,3.564699 5.067938,-2.672425 c 0.276912,0.193399 0.588988,0.338448 0.931833,0.413171 l -0.03516,2.373535 z m 1.265886,1.098859 4.993215,0.0967 7.700805,1.91641 c -0.01319,0.08351 -0.01758,0.167027 -0.01758,0.25054 0,0.10549 0.0088,0.210981 0.03077,0.316471 L 46.94766,46.68393 c -0.136258,-0.08791 -0.285703,-0.158236 -0.448334,-0.206586 -0.241749,-1.766965 -0.901065,-3.38009 -1.920806,-4.64158 -0.865901,-1.063696 -1.828502,-1.802129 -2.729566,-2.312 m 4.505322,10.395207 c 0.193399,-0.03956 0.373612,-0.109886 0.540639,-0.206585 l 5.485505,4.628394 c -1.402145,0.263726 -3.837216,0.663711 -5.28771,0.545034 -1.35819,-0.109886 -2.250464,-0.773596 -2.676821,-1.177977 0.50987,-0.637338 1.481262,-2.01311 1.938387,-3.788866 m 6.861276,3.722935 -5.604181,-4.72949 c 0.101095,-0.224167 0.158236,-0.470311 0.158236,-0.734038 0,-0.232958 -0.04835,-0.457125 -0.127468,-0.663711 l 7.410706,-4.465763 c 0.109886,0.109886 0.232958,0.20219 0.369217,0.276913 L 53.219948,53.63751 Z m 1.20435,-0.483498 2.048273,-9.604029 c 0.232959,-0.02198 0.457126,-0.08791 0.65492,-0.193399 l 3.362509,4.316319 -6.070097,5.485504 z m 6.553592,-6.606341 -3.089992,-3.960288 c 0.123072,-0.241749 0.193399,-0.514266 0.193399,-0.804365 0,-0.180213 -0.02637,-0.351635 -0.07472,-0.514266 L 63.32945,37.51505 Z m 0.342844,-20.610201 2.66803,9.393047 -3.384486,-0.40438 c -0.08351,-0.70327 -0.518662,-1.301049 -1.125232,-1.604334 l 1.846083,-7.384333 z m -2.922965,11.28748 c 0.05275,0 0.10549,0.0088 0.158235,0.0088 0.848319,0 1.577962,-0.50987 1.894433,-1.243908 l 2.720775,0.325262 -5.560227,3.920729 z m -1.09886,-3.692166 c -0.303285,0.232958 -0.540638,0.553825 -0.676897,0.918646 -2.127391,-0.232958 -4.439391,-0.417567 -6.918417,-0.55822 0.0088,-0.08351 0.01319,-0.167027 0.01319,-0.25054 0,-0.773597 -0.342844,-1.468076 -0.883483,-1.942783 l 4.008635,-12.368758 c 0.0923,0.02198 0.184608,0.03516 0.276912,0.04395 z m -9.62161,-22.531007 6.28987,3.463604 -0.830738,1.36698 c -0.180213,0.01319 -0.347239,0.05714 -0.50987,0.118677 z m -2.540562,4.122919 0.193399,-4.953657 6.456896,6.456896 -5.516272,-0.290098 c -0.153841,-0.567012 -0.580198,-1.019742 -1.134023,-1.213141 m 2.518585,21.040954 c 0.725247,-0.149445 1.340608,-0.597779 1.701034,-1.217536 2.575726,0.140654 4.971238,0.334053 7.164561,0.571407 0.0967,0.553825 0.413171,1.028532 0.85711,1.340608 l -0.826342,3.160319 c -0.08351,-0.01319 -0.167026,-0.02198 -0.25054,-0.02198 -0.501079,0 -0.953809,0.206585 -1.279072,0.540638 l -7.40631,-1.841687 0.03516,-2.536167 z M 47.211382,31.07134 45.321345,18.412483 c 0.413171,-0.20219 0.738433,-0.55822 0.896669,-0.997764 l 5.274523,0.276913 c 0.01758,0.399984 0.162632,0.764806 0.399985,1.050509 l -4.02622,12.425899 c -0.210981,-0.06154 -0.430752,-0.0967 -0.65492,-0.101096 m -2.949337,-12.50062 1.894433,12.689624 c -0.175818,0.07033 -0.338449,0.167027 -0.492289,0.276913 l -6.856881,-8.426052 c 0.140654,-0.241749 0.224167,-0.518661 0.224167,-0.821946 0,-0.189004 -0.03516,-0.373612 -0.0923,-0.540639 l 4.593231,-3.481186 c 0.215376,0.149445 0.461521,0.259331 0.729643,0.303286 m -5.990981,-5.661323 0.180213,-5.1162877 5.353642,1.349399 z m 5.97779,-2.77352 -0.193399,4.971239 c -0.325262,0.0923 -0.615361,0.276912 -0.835133,0.523057 l -4.496531,-1.731802 5.529459,-3.762494 z m -1.481262,6.681063 c 0,0.210981 0.03956,0.413171 0.105491,0.59778 L 38.271064,20.9003 c -0.08791,-0.05714 -0.180213,-0.109886 -0.276912,-0.149445 l 0.206585,-5.907466 4.580045,1.766965 c -0.0088,0.06593 -0.01319,0.131863 -0.01319,0.20219 m 17.915799,7.248075 -2.26365,9.050203 c -0.04395,0 -0.08351,0.01319 -0.123072,0.01758 L 54.169358,19.146521 c 0.08351,-0.04835 0.158236,-0.101095 0.232958,-0.162631 l 6.281079,5.072334 z M 54.94735,17.023525 c -0.131863,-0.378007 -0.386798,-0.698874 -0.720851,-0.91425 l 0.646129,-1.063696 3.397672,2.562539 -3.318554,-0.588988 z m 4.795422,1.942783 0.720851,3.538327 -5.406387,-4.369064 z m 11.718233,16.351023 c -0.06593,-1.503239 -0.259331,-3.406463 -0.707665,-5.582204 -0.40438,-1.955969 -1.063696,-4.28555 -2.127392,-6.808531 0.720852,-0.492288 1.195559,-1.323026 1.195559,-2.263649 0,-1.51203 -1.226327,-2.742753 -2.742752,-2.742753 -0.320867,0 -0.628548,0.06154 -0.914251,0.162631 -1.468076,-2.443862 -3.344927,-4.958052 -5.749231,-7.40631 -0.734038,-0.7472242 -1.542798,-1.4592849 -2.41749,-2.1405775 0.193399,-0.312076 0.307681,-0.6812927 0.307681,-1.0768819 0,-1.1340226 -0.923042,-2.0570643 -2.057064,-2.0570643 -0.690084,0 -1.30105,0.3428441 -1.674662,0.8615056 C 52.991381,5.3624324 51.277161,4.566858 49.453055,3.885566 46.3279,2.725171 42.947809,1.933992 39.52816,1.538403 39.299597,0.65492 38.495232,0 37.541422,0 c -1.134023,0 -2.057064,0.923042 -2.057064,2.057064 0,0.971392 0.676897,1.784547 1.586752,1.999924 l 0.329658,3.063619 -0.237354,6.733809 c 0,0 0,0.0044 -0.0044,0.0088 -0.04395,0.118677 -0.04395,0.241749 -0.0088,0.35603 l -0.228559,6.470082 c -0.694479,0.197795 -1.199954,0.835133 -1.199954,1.591148 0,0.756015 0.505475,1.388958 1.191164,1.586753 l 0.294494,10.452347 c 0,0 0,0.02198 0,0.03516 0,0.01319 0,0.02198 0,0.03077 l 0.76041,5.032775 0.426358,0.03516 c 0.03077,0 3.094387,0.272517 5.344851,3.050433 0.874691,1.076882 1.446098,2.457049 1.674661,3.986661 -0.70327,0.237353 -1.20435,0.901064 -1.20435,1.683452 0,0.725247 0.435148,1.345003 1.054905,1.626311 -0.584593,2.06146 -1.942783,3.529536 -1.960365,3.547118 l -0.312076,0.329657 0.268122,0.360426 c 0.05274,0.07033 1.305445,1.718616 3.736121,1.91641 0.206585,0.01758 0.426357,0.02637 0.659315,0.02637 2.338373,0 5.841535,-0.764806 6.026144,-0.80876 v 0 c 0,0 0,0 0,0 l 0.140654,-0.03077 7.872226,-7.111816 2.993292,-11.476485 0.123073,-0.08791 c 1.16479,0.294495 2.153764,0.575803 2.966919,0.813156 -0.193399,0.430753 -0.30768,0.909855 -0.30768,1.410935 0,1.894433 1.534007,3.428441 3.42844,3.428441 1.894433,0 3.42844,-1.534008 3.42844,-3.428441 0,-1.701034 -1.243908,-3.111969 -2.870219,-3.38009"
       id="path347-4"
       style="fill:#f7941d;stroke-width:0.439544" />
  </g>
</svg>
