<?xml version="1.0" encoding="UTF-8" standalone="no"?>
<!-- Created with Inkscape (http://www.inkscape.org/) -->

<svg
   width="260mm"
   height="56mm"
   viewBox="0 0 260 56"
   version="1.1"
   id="svg1"
   inkscape:version="1.4 (e7c3feb1, 2024-10-09)"
   sodipodi:docname="eegdash.svg"
   xmlns:inkscape="http://www.inkscape.org/namespaces/inkscape"
   xmlns:sodipodi="http://sodipodi.sourceforge.net/DTD/sodipodi-0.dtd"
   xmlns="http://www.w3.org/2000/svg"
   xmlns:svg="http://www.w3.org/2000/svg">
  <sodipodi:namedview
     id="namedview1"
     pagecolor="#ffffff"
     bordercolor="#000000"
     borderopacity="0.25"
     inkscape:showpageshadow="2"
     inkscape:pageopacity="0.0"
     inkscape:pagecheckerboard="0"
     inkscape:deskcolor="#d1d1d1"
     inkscape:document-units="mm"
     showguides="true"
     inkscape:zoom="1.1105461"
     inkscape:cx="436.72208"
     inkscape:cy="-13.506868"
     inkscape:window-width="1512"
     inkscape:window-height="917"
     inkscape:window-x="0"
     inkscape:window-y="65"
     inkscape:window-maximized="0"
     inkscape:current-layer="layer1">
    <sodipodi:guide
       position="86.95124,1.3197903"
       orientation="0,-1"
       id="guide1"
       inkscape:locked="false" />
    <sodipodi:guide
       position="115.22227,70.729445"
       orientation="1,0"
       id="guide2"
       inkscape:locked="false" />
    <sodipodi:guide
       position="100.13647,-33.892332"
       orientation="1,0"
       id="guide3"
       inkscape:locked="false" />
  </sodipodi:namedview>
  <defs
     id="defs1">
    <clipPath
       id="clippath-9">
      <rect
         class="st11"
         x="36"
         y="233.97"
         width="523.28003"
         height="127.34"
         id="rect10" />
    </clipPath>
    <clipPath
       id="clippath-9-0">
      <rect
         class="st11"
         x="36"
         y="233.97"
         width="523.28003"
         height="127.34"
         id="rect10-2" />
    </clipPath>
  </defs>
  <g
     inkscape:label="Layer 1"
     inkscape:groupmode="layer"
     id="layer1">
    <g
       class="st7"
       clip-path="url(#clippath-9-0)"
       id="g347"
       transform="matrix(0.43954364,0,0,0.43954364,12.059761,-102.84003)">
      <path
         class="st9"
         d="m 365.85,329.02 c 3.02,0.4 7.48,0.79 13.76,0.79 10.5,0 19.09,-2.23 24.73,-6.92 5.17,-4.37 8.91,-11.45 8.91,-21.71 0,-9.46 -3.5,-16.06 -9.07,-20.2 -5.17,-3.9 -11.77,-5.73 -21.95,-5.73 -6.12,0 -11.93,0.4 -16.38,1.11 v 52.65 z m 12.17,-43.98 c 1.03,-0.24 2.78,-0.48 5.49,-0.48 10.42,0 16.94,5.89 16.86,17.02 0,12.81 -7.16,18.85 -18.13,18.77 -1.51,0 -3.18,0 -4.21,-0.24 v -35.07 z m 69.75,30.46 4.14,13.76 h 13.04 l -16.62,-53.6 h -15.91 l -16.38,53.6 h 12.57 l 3.82,-13.76 h 15.35 z m -13.6,-9.06 3.18,-11.37 c 0.88,-3.1 1.67,-7.16 2.47,-10.34 h 0.16 c 0.8,3.18 1.75,7.16 2.7,10.34 l 3.34,11.37 z m 35.87,20.36 c 3.02,1.67 9.07,3.26 15.19,3.26 14.71,0 21.63,-7.64 21.63,-16.62 0,-7.56 -4.45,-12.49 -13.92,-15.99 -6.92,-2.62 -9.94,-4.14 -9.94,-7.55 0,-2.78 2.54,-5.17 7.79,-5.17 5.25,0 9.07,1.51 11.21,2.55 l 2.7,-9.78 c -3.18,-1.43 -7.64,-2.7 -13.68,-2.7 -12.65,0 -20.28,7 -20.28,16.15 0,7.79 5.81,12.73 14.71,15.83 6.44,2.31 8.99,4.22 8.99,7.56 0,3.34 -2.94,5.81 -8.51,5.81 -5.17,0 -10.18,-1.67 -13.44,-3.34 l -2.46,10.02 z m 45.01,-51.14 v 53.6 h 12.17 v -22.43 h 19.96 v 22.43 h 12.09 v -53.6 h -12.09 v 20.6 h -19.96 v -20.6 z"
         id="path344"
         style="fill:#f7941d" />
      <path
         class="st22"
         d="M 67.89,296.97 H 48.16 v -11.14 h 20.92 v -9.94 H 35.99 v 53.6 h 34.2 v -9.94 H 48.16 v -12.73 h 19.73 v -9.86 z m 42.47,0 H 90.64 v -11.14 h 20.92 v -9.94 H 78.47 v 53.6 h 34.2 v -9.94 H 90.64 v -12.73 h 19.72 v -9.86 z m 55.36,1.83 h -19.96 v 9.47 h 8.27 v 11.21 c -0.96,0.48 -3.18,0.8 -5.97,0.8 -9.94,0 -16.86,-6.52 -16.86,-17.58 0,-11.61 7.63,-17.34 17.74,-17.34 5.89,0 9.54,1.03 12.49,2.31 l 2.55,-9.7 c -2.62,-1.27 -7.95,-2.62 -14.87,-2.62 -17.58,0 -30.54,10.18 -30.62,28 -0.08,7.87 2.62,14.87 7.56,19.49 4.93,4.77 12.01,7.24 21.79,7.24 7.08,0 14.16,-1.75 17.9,-3.02 v -28.23 z"
         id="path345"
         style="fill:#006ca3" />
      <path
         class="st22"
         d="m 263.9,240.06 -0.15,-3.15 c -9.97,0.47 -20.05,2.51 -29.16,5.9 -3.66,1.36 -7.12,2.93 -10.35,4.68 -0.83,-0.76 -1.94,-1.24 -3.16,-1.24 -2.58,0 -4.68,2.09 -4.68,4.68 0,0.47 0.07,0.93 0.2,1.36 -2.55,1.86 -4.89,3.85 -6.95,5.96 -5.38,5.48 -9.6,11.1 -12.92,16.58 -2.92,0.52 -5.14,3.07 -5.14,6.14 0,0.9 0.19,1.75 0.54,2.53 -3.11,6.75 -4.93,12.99 -6,18.11 -1.13,5.46 -1.55,10.15 -1.65,13.72 -2.25,1.37 -3.77,3.84 -3.77,6.67 0,4.31 3.49,7.8 7.8,7.8 4.31,0 7.8,-3.49 7.8,-7.8 0,-1.06 -0.21,-2.08 -0.6,-3 1.27,-0.35 2.72,-0.73 4.32,-1.13 -0.2,1.91 -0.07,4.27 0.32,6.54 0.51,2.96 2.91,5.42 5.1,7.1 -0.75,2.5 -1.2,5.55 0.13,7.57 2.61,3.96 3.33,3.37 3.33,3.37 0,0 -1.88,4.69 0.72,7.04 2.61,2.35 5.79,2.49 5.79,2.49 0,0 2.03,6.74 6.95,6.6 4.92,-0.15 7.67,-1.47 7.67,-1.47 0,0 3.33,2.35 8.25,2.49 5.87,1.5 11.85,-2.25 13.88,-3.7 -3.5,-3.41 -5.68,-8.17 -5.68,-13.45 0,-8.41 5.54,-15.52 13.17,-17.9 l -0.21,-0.42 -0.05,-0.12 -2.87,-7.44 -0.09,-0.33 -2.59,-17.28 -0.03,0.03 -1.35,7.01 c -0.11,0.55 -0.47,0.93 -0.88,0.93 h -0.74 l -1.24,6.43 -1.43,11.54 c -0.04,0.49 -0.29,0.9 -0.64,1.05 -0.09,0.04 -0.18,0.05 -0.26,0.05 -0.26,0 -0.52,-0.15 -0.69,-0.44 l -0.56,-0.9 -0.81,2.1 -0.05,0.12 -1.44,2.86 c -0.17,0.34 -0.45,0.54 -0.75,0.54 -0.02,0 -0.04,0 -0.07,0 -0.32,-0.03 -0.61,-0.3 -0.75,-0.7 l -1.24,-3.47 -2.22,-0.66 -1.21,0.48 c -0.08,0.03 -0.17,0.05 -0.25,0.05 -0.24,0 -0.48,-0.13 -0.65,-0.37 l -0.4,-0.56 -0.96,3.81 c -0.13,0.5 -0.47,0.85 -0.86,0.85 v 0 c -0.39,0 -0.74,-0.35 -0.86,-0.86 l -2.84,-8.95 -1.38,-1.26 -0.09,-0.26 -1.44,-5.73 -0.02,-0.1 -0.52,-2.8 -2.02,11.66 -0.02,0.1 -1.44,6.01 -0.08,0.23 -1.4,3.35 -1.41,5.06 -0.16,0.37 -1.44,2.29 c -0.17,0.28 -0.43,0.43 -0.69,0.43 -0.02,0 -0.05,0 -0.07,0 -0.29,-0.03 -0.55,-0.25 -0.71,-0.58 l -1.44,-3.15 -0.07,-0.17 -1.44,-4.58 -0.05,-0.22 -1.32,-8.15 -0.92,-0.37 c -0.15,-0.06 -0.29,-0.17 -0.4,-0.32 l -1.44,-2 c -0.11,-0.15 -0.19,-0.34 -0.23,-0.55 l -1.4,-6.98 -1.29,-2.84 -1.02,-1.22 -1.02,0.2 h -0.26 l -2.01,2.4 c 0,0 0.03,0.06 0.05,0.09 -1.24,1.16 -2.01,2.37 -2.43,3.58 -0.08,0.09 -0.15,0.2 -0.22,0.31 -2.67,0.65 -4.98,1.26 -6.85,1.78 -1.41,-1.42 -3.37,-2.3 -5.53,-2.3 -0.28,0 -0.55,0.02 -0.83,0.04 0.15,-3.25 0.57,-7.34 1.53,-11.99 0.95,-4.58 2.54,-10.1 5.16,-16.08 0.99,0.65 2.17,1.04 3.44,1.04 3.45,0 6.24,-2.79 6.24,-6.24 0,-0.26 -0.02,-0.51 -0.05,-0.77 1.86,-0.54 4.05,-1.15 6.52,-1.79 -0.15,1.09 -0.22,2.24 -0.19,3.45 0,0 -7.84,5.11 -8.8,12.66 -0.69,5.4 -0.53,11.16 0.75,13.26 0.07,0.27 0.15,0.53 0.23,0.79 l 0.04,-0.05 c 0.17,-0.2 0.38,-0.31 0.6,-0.31 0.04,0 0.09,0 0.13,0.01 l 2.33,-2.39 1.31,-0.26 c 0,0 0.09,-0.01 0.13,-0.01 0.22,0 0.43,0.11 0.6,0.31 l 1.44,1.72 0.17,0.28 1.44,3.15 0.11,0.33 1.37,6.85 1.1,1.54 1.21,0.48 c 0.32,0.13 0.56,0.49 0.64,0.93 l 1.42,8.76 1.37,4.38 0.74,1.63 0.52,-0.84 1.38,-4.95 0.06,-0.18 1.39,-3.32 1.4,-5.84 2.86,-16.56 c 0.1,-0.56 0.46,-0.96 0.88,-0.96 v 0 c 0.42,0 0.78,0.39 0.88,0.94 l 1.43,7.68 1.39,5.54 1.38,1.27 0.09,0.27 2.03,5.55 0.55,-2.2 c 0.1,-0.41 0.35,-0.72 0.66,-0.81 0.07,-0.02 0.14,-0.03 0.2,-0.03 0.24,0 0.47,0.13 0.65,0.37 l 1.05,1.47 0.91,-0.36 c 0.08,-0.03 0.17,-0.05 0.26,-0.05 0.07,0 0.13,0 0.19,0.03 l 2.87,0.86 c 0.27,0.08 0.5,0.33 0.62,0.67 l 0.75,2.09 0.52,-1.04 1.41,-3.66 c 0.14,-0.37 0.4,-0.61 0.71,-0.66 0.03,0 0.07,0 0.1,0 0.26,0 0.52,0.16 0.69,0.43 l 0.09,0.14 1.19,-8.81 0.02,-0.17 1.44,-7.44 c 0.11,-0.55 0.47,-0.93 0.88,-0.93 h 0.73 l 1.26,-6.51 c 0.05,-0.28 0.18,-0.52 0.35,-0.69 l 1.44,-1.43 c 0.16,-0.16 0.35,-0.24 0.54,-0.24 0.11,0 0.22,0.03 0.33,0.08 0.29,0.15 0.5,0.5 0.56,0.92 l 2.85,19.01 2.79,7.22 0.23,0.45 c 0.66,-1.19 1.21,-2.64 1.27,-4.22 0.09,-2.51 0.12,-4.91 -0.77,-6.97 1.18,-5.36 -0.6,-19.68 -0.15,-29.44 l -1.57,-0.15 c -0.32,-0.03 -0.61,-0.27 -0.77,-0.63 l -1.49,-3.33 -1.47,-2.2 c -0.09,-0.14 -0.16,-0.31 -0.2,-0.49 l -1.46,-6.84 -0.53,-0.69 -0.83,1.56 -1.51,3.66 c -0.17,0.42 -0.51,0.67 -0.86,0.67 -0.13,0 -0.26,-0.03 -0.39,-0.1 l -0.4,-0.22 -1.32,9.6 c -0.06,0.43 -0.28,0.78 -0.59,0.94 -0.12,0.06 -0.24,0.09 -0.36,0.09 -0.2,0 -0.4,-0.08 -0.57,-0.24 l -1.53,-1.43 -0.25,-0.35 -0.58,-1.18 -0.78,2.19 c -0.14,0.4 -0.44,0.67 -0.78,0.72 -0.04,0 -0.07,0 -0.11,0 -0.3,0 -0.59,-0.18 -0.77,-0.49 l -1.13,-1.9 -0.89,0.33 -0.27,0.05 h -0.85 l -1.3,4.61 c -0.12,0.43 -0.42,0.75 -0.77,0.81 l -0.92,0.17 -1.35,5.82 c -0.06,0.26 -0.19,0.49 -0.36,0.65 l -1.53,1.43 c -0.17,0.16 -0.37,0.24 -0.57,0.24 -0.11,0 -0.22,-0.02 -0.32,-0.07 -0.3,-0.14 -0.53,-0.45 -0.62,-0.85 l -1.48,-6.92 -0.64,-1.08 -0.76,1.28 c -0.19,0.31 -0.47,0.49 -0.77,0.49 -0.08,0 -0.16,-0.01 -0.23,-0.04 -0.38,-0.12 -0.66,-0.51 -0.73,-1 l -1.24,-9.26 -0.13,0.15 -1.46,2.73 c -0.15,0.29 -0.39,0.48 -0.66,0.53 l -1.53,0.29 c 0,0 -0.09,0.01 -0.14,0.01 -0.23,0 -0.46,-0.11 -0.64,-0.31 l -1.42,-1.59 -0.63,-0.35 -1.09,2.24 c -0.17,0.35 -0.46,0.57 -0.78,0.59 -0.01,0 -0.03,0 -0.05,0 -0.3,0 -0.59,-0.18 -0.77,-0.49 l -3.06,-5.15 -0.13,-0.29 -1.19,-3.77 c -0.31,0.72 -0.59,1.48 -0.83,2.27 -3.19,0.8 -5.93,1.56 -8.19,2.22 -0.68,-1.03 -1.66,-1.84 -2.81,-2.31 3.08,-4.88 6.91,-9.87 11.69,-14.74 2.02,-2.06 4.23,-3.93 6.58,-5.64 0.75,0.5 1.64,0.79 2.6,0.79 0.22,0 0.43,-0.02 0.64,-0.05 0.51,2.38 1.04,4.92 1.58,7.61 -2.38,0.25 -5.86,1.43 -8.89,5.69 -0.39,0.55 -0.76,1.12 -1.12,1.72 l 0.2,0.4 1.48,4.71 2.13,3.58 0.79,-1.62 c 0.18,-0.38 0.5,-0.59 0.83,-0.59 0.13,0 0.26,0.03 0.39,0.1 l 1.53,0.86 0.25,0.2 1.2,1.34 0.67,-0.12 1.29,-2.41 0.16,-0.23 1.53,-1.72 c 0.18,-0.2 0.41,-0.31 0.64,-0.31 0.11,0 0.22,0.02 0.32,0.07 0.33,0.15 0.57,0.52 0.63,0.97 l 1.15,8.63 0.18,-0.3 c 0.18,-0.31 0.47,-0.49 0.77,-0.49 0.3,0 0.59,0.18 0.77,0.49 l 1.53,2.58 0.17,0.43 1.16,5.42 0.13,-0.12 1.44,-6.18 c 0.11,-0.47 0.42,-0.81 0.79,-0.88 l 0.96,-0.18 1.33,-4.74 c 0.14,-0.49 0.51,-0.83 0.91,-0.83 h 1.39 l 1.4,-0.52 c 0.09,-0.03 0.18,-0.05 0.27,-0.05 0.3,0 0.58,0.18 0.77,0.49 l 0.55,0.92 0.86,-2.4 c 0.15,-0.42 0.47,-0.7 0.82,-0.73 0.02,0 0.04,0 0.06,0 0.33,0 0.65,0.22 0.82,0.59 l 1.43,2.94 0.12,0.11 1.26,-9.19 c 0.05,-0.38 0.24,-0.7 0.5,-0.89 0.14,-0.1 0.3,-0.15 0.46,-0.15 0.13,0 0.26,0.04 0.39,0.1 l 0.71,0.4 1.11,-2.7 0.06,-0.12 1.53,-2.86 c 0.16,-0.31 0.43,-0.5 0.72,-0.54 0.03,0 0.06,0 0.09,0 0.26,0 0.51,0.13 0.69,0.37 l 1.53,2 c 0.12,0.15 0.2,0.34 0.24,0.55 l 1.47,6.89 1.39,2.08 0.11,0.19 1.27,2.86 1.04,0.1 c 0.54,-11.46 0.82,-28.59 -0.96,-30.35 -1.65,-1.64 -4.68,-2.71 -7.79,-1.08 -3.11,1.63 -5.37,4.6 -5.37,4.6 0,0 -5.35,-4.26 -14.18,0.07 -4.42,2.17 -6.8,8.68 -7.18,9.8 -0.63,-3.16 -1.25,-6.12 -1.84,-8.85 0.86,-0.85 1.4,-2.03 1.4,-3.34 0,-0.22 -0.02,-0.43 -0.05,-0.65 12.29,-6.63 26.73,-9.68 38.2,-10.22"
         id="path346"
         style="fill:#006ca3" />
      <path
         class="st9"
         d="m 265.34,330.57 c -2.57,0 -4.95,0.79 -6.93,2.13 -3.27,2.22 -5.41,5.97 -5.41,10.21 0,5.15 3.15,9.55 7.62,11.41 0.6,-1.63 1.39,-3.8 2.44,-6.67 0.14,-0.39 -0.04,-0.86 -0.42,-1.05 -0.8,-0.4 -1.81,-1.92 -1.81,-3.68 0,-2.49 2.01,-4.5 4.5,-4.5 2.49,0 4.5,2.01 4.5,4.5 0,1.76 -1.01,3.28 -1.81,3.68 -0.37,0.19 -0.56,0.66 -0.42,1.05 1.05,2.87 1.84,5.04 2.44,6.67 4.48,-1.85 7.63,-6.26 7.63,-11.41 0,-6.82 -5.52,-12.34 -12.34,-12.34 m 73.23,-28.46 c 1,4.79 1.42,9.01 1.57,12.32 -1.47,0.37 -2.77,1.15 -3.78,2.22 -1.97,-0.6 -4.46,-1.3 -7.46,-2.07 l -7.56,-26.65 -2.09,-10.27 c 3.12,0.82 5.77,1.6 7.93,2.29 -0.05,0.33 -0.09,0.67 -0.09,1.01 0,3.45 2.79,6.24 6.24,6.24 0.18,0 0.37,-0.01 0.55,-0.03 2.35,5.54 3.8,10.65 4.7,14.94 m -9.95,-25.24 c -0.22,0.25 -0.42,0.51 -0.59,0.78 -2.51,-0.8 -5.69,-1.73 -9.51,-2.7 0,-0.01 -0.02,-0.02 -0.03,-0.03 -0.03,-0.04 -0.07,-0.07 -0.11,-0.1 -0.02,-0.01 -0.03,-0.03 -0.05,-0.04 L 306.7,266 c 0.52,-2.65 0.95,-5.06 1.32,-7.2 0.2,-1.14 0.39,-2.21 0.57,-3.2 0.03,0 0.05,0 0.08,0 0.5,0 0.97,-0.08 1.42,-0.22 2.06,1.56 4.01,3.24 5.81,5.07 5.33,5.43 9.48,11 12.72,16.42 m -24.6,-25.51 c 0.14,1.51 0.99,2.81 2.21,3.56 -0.2,1.06 -0.4,2.22 -0.62,3.46 -0.33,1.88 -0.7,3.98 -1.14,6.26 l -21.16,-11.66 c 0,0 -0.02,0 -0.03,-0.01 -0.15,-0.08 -0.33,-0.13 -0.52,-0.14 -0.02,0 -0.04,0 -0.06,0 -0.05,-0.02 -0.1,-0.04 -0.15,-0.05 l -14.42,-3.63 -0.64,-6.02 c 1.27,-0.39 2.3,-1.32 2.86,-2.51 10.8,1.29 23.16,4.63 33.67,10.75 m -36.89,36.79 c 0,0 0.02,-0.01 0.03,-0.02 l 15.75,19.35 c -0.53,0.88 -0.85,1.9 -0.85,3.01 0,0.16 0.01,0.31 0.02,0.46 l -14.33,-0.15 -0.63,-22.65 z m 0.87,25.1 14.85,0.16 c 0,0 0,0 0,0.01 l -13.74,7.24 -1.12,-7.41 z m 5.03,8.11 11.53,-6.08 c 0.63,0.44 1.34,0.77 2.12,0.94 l -0.08,5.4 z m 2.88,2.5 11.36,0.22 17.52,4.36 c -0.03,0.19 -0.04,0.38 -0.04,0.57 0,0.24 0.02,0.48 0.07,0.72 l -17.3,10.42 c -0.31,-0.2 -0.65,-0.36 -1.02,-0.47 -0.55,-4.02 -2.05,-7.69 -4.37,-10.56 -1.97,-2.42 -4.16,-4.1 -6.21,-5.26 m 10.25,23.65 c 0.44,-0.09 0.85,-0.25 1.23,-0.47 l 12.48,10.53 c -3.19,0.6 -8.73,1.51 -12.03,1.24 -3.09,-0.25 -5.12,-1.76 -6.09,-2.68 1.16,-1.45 3.37,-4.58 4.41,-8.62 m 15.61,8.47 -12.75,-10.76 c 0.23,-0.51 0.36,-1.07 0.36,-1.67 0,-0.53 -0.11,-1.04 -0.29,-1.51 l 16.86,-10.16 c 0.25,0.25 0.53,0.46 0.84,0.63 l -5.01,23.46 z m 2.74,-1.1 4.66,-21.85 c 0.53,-0.05 1.04,-0.2 1.49,-0.44 l 7.65,9.82 -13.81,12.48 z m 14.91,-15.03 -7.03,-9.01 c 0.28,-0.55 0.44,-1.17 0.44,-1.83 0,-0.41 -0.06,-0.8 -0.17,-1.17 l 12.12,-8.55 z m 0.78,-46.89 6.07,21.37 -7.7,-0.92 c -0.19,-1.6 -1.18,-2.96 -2.56,-3.65 l 4.2,-16.8 z m -6.65,25.68 c 0.12,0 0.24,0.02 0.36,0.02 1.93,0 3.59,-1.16 4.31,-2.83 l 6.19,0.74 -12.65,8.92 z m -2.5,-8.4 c -0.69,0.53 -1.23,1.26 -1.54,2.09 -4.84,-0.53 -10.1,-0.95 -15.74,-1.27 0.02,-0.19 0.03,-0.38 0.03,-0.57 0,-1.76 -0.78,-3.34 -2.01,-4.42 l 9.12,-28.14 c 0.21,0.05 0.42,0.08 0.63,0.1 z m -21.89,-51.26 14.31,7.88 -1.89,3.11 c -0.41,0.03 -0.79,0.13 -1.16,0.27 z m -5.78,9.38 0.44,-11.27 14.69,14.69 -12.55,-0.66 c -0.35,-1.29 -1.32,-2.32 -2.58,-2.76 m 5.73,47.87 c 1.65,-0.34 3.05,-1.36 3.87,-2.77 5.86,0.32 11.31,0.76 16.3,1.3 0.22,1.26 0.94,2.34 1.95,3.05 l -1.88,7.19 c -0.19,-0.03 -0.38,-0.05 -0.57,-0.05 -1.14,0 -2.17,0.47 -2.91,1.23 l -16.85,-4.19 0.08,-5.77 z m -1,-11.6 -4.3,-28.8 c 0.94,-0.46 1.68,-1.27 2.04,-2.27 l 12,0.63 c 0.04,0.91 0.37,1.74 0.91,2.39 l -9.16,28.27 c -0.48,-0.14 -0.98,-0.22 -1.49,-0.23 m -6.71,-28.44 4.31,28.87 c -0.4,0.16 -0.77,0.38 -1.12,0.63 L 269,286.52 c 0.32,-0.55 0.51,-1.18 0.51,-1.87 0,-0.43 -0.08,-0.85 -0.21,-1.23 l 10.45,-7.92 c 0.49,0.34 1.05,0.59 1.66,0.69 m -13.63,-12.88 0.41,-11.64 12.18,3.07 z m 13.6,-6.31 -0.44,11.31 c -0.74,0.21 -1.4,0.63 -1.9,1.19 l -10.23,-3.94 12.58,-8.56 z m -3.37,15.2 c 0,0.48 0.09,0.94 0.24,1.36 l -10.47,7.94 c -0.2,-0.13 -0.41,-0.25 -0.63,-0.34 l 0.47,-13.44 10.42,4.02 c -0.02,0.15 -0.03,0.3 -0.03,0.46 m 40.76,16.49 -5.15,20.59 c -0.1,0 -0.19,0.03 -0.28,0.04 l -9.39,-31.81 c 0.19,-0.11 0.36,-0.23 0.53,-0.37 l 14.29,11.54 z m -13.05,-16.01 c -0.3,-0.86 -0.88,-1.59 -1.64,-2.08 l 1.47,-2.42 7.73,5.83 -7.55,-1.34 z m 10.91,4.42 1.64,8.05 -12.3,-9.94 z m 26.66,37.2 c -0.15,-3.42 -0.59,-7.75 -1.61,-12.7 -0.92,-4.45 -2.42,-9.75 -4.84,-15.49 1.64,-1.12 2.72,-3.01 2.72,-5.15 0,-3.44 -2.79,-6.24 -6.24,-6.24 -0.73,0 -1.43,0.14 -2.08,0.37 -3.34,-5.56 -7.61,-11.28 -13.08,-16.85 -1.67,-1.7 -3.51,-3.32 -5.5,-4.87 0.44,-0.71 0.7,-1.55 0.7,-2.45 0,-2.58 -2.1,-4.68 -4.68,-4.68 -1.57,0 -2.96,0.78 -3.81,1.96 -3.6,-2.05 -7.5,-3.86 -11.65,-5.41 -7.11,-2.64 -14.8,-4.44 -22.58,-5.34 -0.52,-2.01 -2.35,-3.5 -4.52,-3.5 -2.58,0 -4.68,2.1 -4.68,4.68 0,2.21 1.54,4.06 3.61,4.55 l 0.75,6.97 -0.54,15.32 c 0,0 0,0.01 -0.01,0.02 -0.1,0.27 -0.1,0.55 -0.02,0.81 l -0.52,14.72 c -1.58,0.45 -2.73,1.9 -2.73,3.62 0,1.72 1.15,3.16 2.71,3.61 l 0.67,23.78 c 0,0 0,0.05 0,0.08 0,0.03 0,0.05 0,0.07 l 1.73,11.45 0.97,0.08 c 0.07,0 7.04,0.62 12.16,6.94 1.99,2.45 3.29,5.59 3.81,9.07 -1.6,0.54 -2.74,2.05 -2.74,3.83 0,1.65 0.99,3.06 2.4,3.7 -1.33,4.69 -4.42,8.03 -4.46,8.07 l -0.71,0.75 0.61,0.82 c 0.12,0.16 2.97,3.91 8.5,4.36 0.47,0.04 0.97,0.06 1.5,0.06 5.32,0 13.29,-1.74 13.71,-1.84 v 0 c 0,0 0,0 0,0 l 0.32,-0.07 17.91,-16.18 6.81,-26.11 0.28,-0.2 c 2.65,0.67 4.9,1.31 6.75,1.85 -0.44,0.98 -0.7,2.07 -0.7,3.21 0,4.31 3.49,7.8 7.8,7.8 4.31,0 7.8,-3.49 7.8,-7.8 0,-3.87 -2.83,-7.08 -6.53,-7.69"
         id="path347"
         style="fill:#f7941d" />
    </g>
  </g>
</svg>
